<svg width="20" height="20" viewBox="0 0 20 20" fill="none" xmlns="http://www.w3.org/2000/svg">
<path d="M13.891 17.418C14.0197 17.5484 14.0918 17.7243 14.0918 17.9075C14.0918 18.0907 14.0197 18.2666 13.891 18.397C13.8277 18.4613 13.7523 18.5123 13.6691 18.5471C13.586 18.5819 13.4967 18.5999 13.4065 18.5999C13.3163 18.5999 13.2271 18.5819 13.1439 18.5471C13.0607 18.5123 12.9853 18.4613 12.922 18.397L5.09201 10.489C4.96333 10.3586 4.89119 10.1827 4.89119 9.9995C4.89119 9.81628 4.96333 9.64043 5.09201 9.51L12.922 1.602C12.9853 1.53775 13.0607 1.48673 13.1439 1.4519C13.2271 1.41707 13.3163 1.39914 13.4065 1.39914C13.4967 1.39914 13.586 1.41707 13.6691 1.4519C13.7523 1.48673 13.8277 1.53775 13.891 1.602C14.0197 1.73243 14.0918 1.90828 14.0918 2.0915C14.0918 2.27472 14.0197 2.45057 13.891 2.581L6.75001 10L13.891 17.418Z" fill="#FF4946"/>
</svg>
