<svg xmlns="http://www.w3.org/2000/svg" width="32" height="32" viewBox="0 0 32 32"><g transform="translate(-3448.575 -1787.467)"><path fill="#b4ea7a" d="m 3476.9504,780.98183 a 12.375,12.375 0 0 1 -12.375,12.375 12.375,12.375 0 0 1 -12.375,-12.375 12.375,12.375 0 0 1 12.375,-12.375 12.375,12.375 0 0 1 12.375,12.375 z" transform="translate(0 1020.362)"/><g fill="#3a3640" transform="matrix(1 0 0 1.00006 464.943 -384.84)"><path style="line-height:normal;text-indent:0;text-align:start;text-decoration-line:none;text-decoration-style:solid;text-decoration-color:#000;text-transform:none;white-space:normal;isolation:auto;mix-blend-mode:normal;solid-color:#000;solid-opacity:1" d="M3009.4492 2174.748c-.5822-.1254-1.2046-.062-1.7695.209a.50004997.50004997 0 10.4336.9004c.7227-.3472 1.582-.1609 2.0976.4531.5157.6141.549 1.4928.082 2.1446-.467.6518-1.3094.902-2.0567.6113-.7473-.2907-1.1997-1.0457-1.1035-1.8418a.50004997.50004997 0 10-.9922-.1191c-.1504 1.2445.5642 2.4381 1.7324 2.8925 1.1683.4545 2.5025.058 3.2325-.9609.73-1.019.6772-2.4111-.1289-3.3711-.4031-.48-.9452-.7925-1.5274-.918zM3008.8711 2189.1855c-1.5129 0-2.75 1.2372-2.75 2.75 0 1.5129 1.2371 2.75 2.75 2.75 1.5129 0 2.75-1.2371 2.75-2.75 0-1.5128-1.2371-2.75-2.75-2.75zm0 1c.9724 0 1.75.7776 1.75 1.75 0 .9725-.7776 1.75-1.75 1.75-.9724 0-1.75-.7775-1.75-1.75 0-.9724.7776-1.75 1.75-1.75zM2999.4492 2182.748c-.5822-.1254-1.2046-.062-1.7695.209a.50004997.50004997 0 10.4336.9004c.7227-.3472 1.582-.1609 2.0976.4531.5157.6141.5491 1.4927.082 2.1446-.467.6518-1.3094.902-2.0567.6113-.7473-.2907-1.1997-1.0457-1.1035-1.8418a.50004997.50004997 0 10-.9922-.1191c-.1504 1.2445.5642 2.4381 1.7324 2.8925 1.1683.4545 2.5025.058 3.2325-.9609.73-1.019.6772-2.4111-.1289-3.3711-.4031-.48-.9452-.7925-1.5274-.918z" color="#000" enable-background="accumulate" font-family="sans-serif" font-weight="400" overflow="visible"/><path style="line-height:normal;text-indent:0;text-align:start;text-decoration-line:none;text-decoration-style:solid;text-decoration-color:#000;text-transform:none;white-space:normal;isolation:auto;mix-blend-mode:normal;solid-color:#000;solid-opacity:1" fill-rule="evenodd" d="M3006.6836 2178.5449l-6.25 5 .625.7813 6.25-5zM3001.0176 2186.2344l-.5449.8379 6.4453 4.1894.5449-.8379zM3006.6836 2193.0449l-6.25 5 .625.7813 6.25-5z" color="#000" enable-background="accumulate" font-family="sans-serif" font-weight="400" overflow="visible"/><path style="line-height:normal;text-indent:0;text-align:start;text-decoration-line:none;text-decoration-style:solid;text-decoration-color:#000;text-transform:none;white-space:normal;isolation:auto;mix-blend-mode:normal;solid-color:#000;solid-opacity:1" d="m 2999.4492,2197.248 c -0.5822,-0.1254 -1.2046,-0.062 -1.7695,0.209 a 0.50004997,0.50004997 0 1 0 0.4336,0.9004 c 0.7227,-0.3472 1.582,-0.1609 2.0976,0.4531 0.5157,0.6141 0.5491,1.4927 0.082,2.1446 -0.467,0.6518 -1.3094,0.902 -2.0567,0.6113 -0.7473,-0.2907 -1.1997,-1.0457 -1.1035,-1.8418 a 0.50004997,0.50004997 0 1 0 -0.9922,-0.1191 c -0.1504,1.2445 0.5642,2.4381 1.7324,2.8925 1.1683,0.4545 2.5025,0.058 3.2325,-0.9609 0.73,-1.019 0.6772,-2.4111 -0.1289,-3.3711 -0.4031,-0.48 -0.9452,-0.7925 -1.5274,-0.918 z" color="#000" enable-background="accumulate" font-family="sans-serif" font-weight="400" overflow="visible"/></g></g></svg>