<svg xmlns="http://www.w3.org/2000/svg" width="32" height="32" viewBox="0 0 32 32"><g transform="translate(-3300.352 -1524.399)"><path fill="#fc987a" d="m 3330.5096,517.6484 a 12.375,12.375 0 0 1 -12.375,12.375 12.375,12.375 0 0 1 -12.375,-12.375 12.375,12.375 0 0 1 12.375,-12.375 12.375,12.375 0 0 1 12.375,12.375 z" transform="translate(0 1020.362)"/><g fill="#3a3640" transform="translate(464.943 -384.72)"><path style="line-height:normal;text-indent:0;text-align:start;text-decoration-line:none;text-decoration-style:solid;text-decoration-color:#000;text-transform:none;white-space:normal;isolation:auto;mix-blend-mode:normal;solid-color:#000;solid-opacity:1" d="m 2849.2598,1912.0215 c -1.7272,0.2471 -3.4342,0.8213 -5.0293,1.7461 -6.3804,3.6992 -8.7979,11.7294 -5.5196,18.3359 3.2783,6.6066 11.1345,9.537 17.9395,6.6934 6.805,-2.8436 10.2388,-10.492 7.8418,-17.4668 a 0.50005,0.50005 0 1 0 -0.9453,0.3242 c 2.2288,6.4854 -0.9557,13.5766 -7.2832,16.2207 -6.3275,2.6441 -13.608,-0.074 -16.6563,-6.2168 -3.0482,-6.143 -0.8077,-13.5857 5.125,-17.0254 5.9327,-3.4397 13.5037,-1.6858 17.3203,4.0117 a 0.50054819,0.50054819 0 1 0 0.8321,-0.5566 c -3.0785,-4.5956 -8.4435,-6.8078 -13.625,-6.0664 z" color="#000" enable-background="accumulate" font-family="sans-serif" font-weight="400" overflow="visible"/><path style="line-height:normal;text-indent:0;text-align:start;text-decoration-line:none;text-decoration-style:solid;text-decoration-color:#000;text-transform:none;white-space:normal;isolation:auto;mix-blend-mode:normal;solid-color:#000;solid-opacity:1" fill-rule="evenodd" d="m 2860.4453,1915.9805 -19.0918,19.0918 0.707,0.707 19.0918,-19.0918 z" color="#000" enable-background="accumulate" font-family="sans-serif" font-weight="400" overflow="visible"/><path style="line-height:normal;text-indent:0;text-align:start;text-decoration-line:none;text-decoration-style:solid;text-decoration-color:#000;text-transform:none;white-space:normal;isolation:auto;mix-blend-mode:normal;solid-color:#000;solid-opacity:1" fill-rule="evenodd" d="m 2842.0605,1915.9805 -0.707,0.707 19.0918,19.0918 0.707,-0.707 z" color="#000" enable-background="accumulate" font-family="sans-serif" font-weight="400" overflow="visible"/><path style="line-height:normal;text-indent:0;text-align:start;text-decoration-line:none;text-decoration-style:solid;text-decoration-color:#000;text-transform:none;white-space:normal;isolation:auto;mix-blend-mode:normal;solid-color:#000;solid-opacity:1" d="M2837.6734 1926.6464a.50005.50005 0 01.3687-.8494c3.4918.034 6.8514-1.3359 9.3209-3.8048 2.4694-2.469 3.8398-5.8277 3.8062-9.3195a.50066897.50066897 0 111.0012-.01c.036 3.76-1.4412 7.3776-4.1003 10.0362-2.6592 2.6585-6.2777 4.1361-10.0377 4.099a.50005.50005 0 01-.359-.1519zM2850.4828 1939.6464a.50005.50005 0 01-.145-.3466c-.092-3.8314 1.3905-7.5334 4.1018-10.242 2.7113-2.7086 6.4148-4.1885 10.2461-4.0922a.50011746.50011746 0 11-.025.9999c-3.558-.089-6.9962 1.2839-9.5141 3.7994-2.518 2.5154-3.895 5.9519-3.8091 9.51a.50005.50005 0 01-.8548.3715z" color="#000" enable-background="accumulate" font-family="sans-serif" font-weight="400" overflow="visible"/><path d="m 2863.8446,1919.8838 c 0,-0.2761 -0.2238,-0.5 -0.5,-0.5 -0.2761,0 -0.5,0.2239 -0.5,0.5 0,0.2761 0.2239,0.5 0.5,0.5 0.2762,0 0.5,-0.2239 0.5,-0.5 z"/></g></g></svg>