<?xml version="1.0" encoding="UTF-8"?>
<svg width="127px" height="50px" viewBox="0 0 127 50" version="1.1" xmlns="http://www.w3.org/2000/svg" xmlns:xlink="http://www.w3.org/1999/xlink">
    <title>powerbull</title>
    <defs>
        <polygon id="path-1" points="2.04901303e-20 1.38893939 2.04901303e-20 17.7616667 12.297531 17.7616667 12.297531 1.38893939 0 1.38893939"></polygon>
        <polygon id="path-3" points="0 49.6284848 126.788333 49.6284848 126.788333 -0.000303030303 0 -0.000303030303"></polygon>
    </defs>
    <g id="Page-1" stroke="none" stroke-width="1" fill="none" fill-rule="evenodd">
        <g id="LeadsGen-Mockup" transform="translate(-293.000000, -2571.000000)">
            <g id="powerbull" transform="translate(293.000000, 2571.000000)">
                <g id="Page-1">
                    <path d="M78.1872476,26.4033333 L78.1857357,26.4033333 C79.4708548,27.3321212 80.9782238,28.2381818 82.5732833,28.4336364 C86.802081,28.7427273 87.1331881,24.3609091 87.1331881,24.3609091 C87.5020929,21.9472727 86.3696762,20.6169697 86.3696762,20.6169697 C85.7014143,19.9124242 85.5018429,18.77 85.5018429,18.77 C85.5487119,17.5684848 86.8791881,17.989697 86.8791881,17.989697 C91.6099381,20.3851515 92.4747476,15.5078788 92.4747476,15.5078788 C90.7269857,16.3381818 87.786331,15.5472727 87.786331,15.5472727 C85.6227952,14.5442424 84.5417833,15.8912121 84.5417833,15.8912121 C83.1251286,17.1442424 84.0640214,18.8487879 84.0640214,18.8487879 C85.1934143,21.0124242 85.6197714,22.7669697 85.6197714,22.7669697 C86.0612476,26.0078788 83.9823786,26.6654545 83.9823786,26.6654545 C79.9622238,27.9412121 77.3058071,21.6609091 77.3058071,21.6609091 C76.5256643,18.6124242 73.5759381,17.5336364 73.5759381,17.5336364 C71.9551762,16.4881818 71.498581,15.2124242 71.498581,15.2124242 C70.8439262,11.7957576 68.1542476,10.8639394 68.1542476,10.8639394 C67.0641643,10.1609091 67.1352238,9.73818182 67.1352238,9.73818182 C66.8812238,7.14575758 64.1718905,5.41242424 64.1718905,5.41242424 C62.9472476,4.37757576 61.8284381,2.42151515 61.8284381,2.42151515 C60.3482833,-0.696666667 55.8171048,0.0881818182 55.8171048,0.0881818182 C54.861581,0.454848485 53.6974143,0.660909091 53.6974143,0.660909091 C51.146831,1.07151515 49.7785571,1.67151515 49.7785571,1.67151515 C48.7897714,2.02454545 47.3610214,2.69424242 47.3610214,2.69424242 C45.6964143,3.13666667 44.2374262,4.2230303 44.2374262,4.2230303 C42.4548905,5.03515152 41.7276643,6.84121212 41.7276643,6.84121212 C41.5507714,7.21090909 40.5377952,8.37151515 40.5377952,8.37151515 C40.2732119,8.68212121 39.1922,10.0381818 39.1922,10.0381818 C38.0764143,10.6230303 37.2342833,12.2154545 37.2342833,12.2154545 C35.2688071,12.5851515 34.1394143,13.8184848 34.1394143,13.8184848 C32.9268667,14.5457576 31.1715452,14.3972727 31.1715452,14.3972727 C32.7333429,15.9806061 34.9981762,14.6366667 34.9981762,14.6366667 C35.8282119,13.8972727 37.3718667,13.3972727 37.3718667,13.3972727 C37.9857,13.1836364 38.1066524,13.4184848 38.1066524,13.4184848 C38.3742595,13.6972727 37.810319,13.9972727 37.810319,13.9972727 C36.0247595,14.8563636 35.462331,15.8275758 35.462331,15.8275758 C34.3374738,16.7487879 31.8004976,16.5881818 31.8004976,16.5881818 C34.1757,18.4654545 36.8880571,17.0578788 36.8880571,17.0578788 C37.3764024,16.6427273 37.7967119,17.52 37.7967119,17.52 C38.2109738,18.9533333 39.6336762,19.4593939 39.6336762,19.4593939 C40.1205095,19.5851515 40.447081,19.7912121 40.447081,19.7912121 C40.9928786,20.0245455 41.8864143,20.9366667 41.8864143,20.9366667 C42.1192476,21.1745455 42.8540333,21.8215152 42.8540333,21.8215152 C43.3181881,22.2866667 43.5328786,22.3927273 43.5328786,22.3927273 C43.7702476,22.4306061 43.8413071,22.5790909 43.8413071,22.5790909 C44.2132357,22.9109091 44.6728548,22.6639394 44.6728548,22.6639394 C45.0145452,22.5048485 45.525569,21.7381818 45.525569,21.7381818 C45.8264381,21.0033333 45.4771881,20.1775758 45.4771881,20.1775758 C45.3698429,19.800303 45.44695,19.8018182 45.44695,19.8018182 C45.7977119,19.6215152 46.2694262,20.1987879 46.2694262,20.1987879 C46.6398429,20.5760606 46.7411405,19.8124242 46.7411405,19.8124242 C46.9845571,19.089697 46.3132714,17.8851515 46.3132714,17.8851515 C46.1016048,17.4927273 46.2603548,17.0760606 46.2603548,17.0760606 C46.4584143,16.5533333 46.2921048,15.5245455 46.2921048,15.5245455 C46.192319,15.0806061 46.5869262,15.4093939 46.5869262,15.4093939 C46.8847714,15.6715152 48.5387952,16.800303 48.5387952,16.800303 C48.924331,17.5109091 50.5587,17.7851515 50.5587,17.7851515 C49.8344976,14.6790909 52.0282714,13.0412121 52.0282714,13.0412121 C51.5474857,14.0093939 51.3630333,15.8639394 51.3630333,15.8639394 C51.1286881,17.4169697 51.6805333,17.9290909 51.6805333,17.9290909 C51.8392833,18.2093939 53.0367119,19.17 53.0367119,19.17 C53.4751643,19.6381818 52.9278548,19.9154545 52.9278548,19.9154545 C52.7177,19.9412121 52.1235214,20.400303 52.1235214,20.4018182 C51.7667119,20.7866667 50.0764024,21.8336364 50.0764024,21.8336364 C49.5018786,21.9730303 49.32045,22.5972727 49.32045,22.5972727 C49.0165571,23.1366667 49.0074857,24.4154545 49.0074857,24.4154545 C48.986319,24.7639394 48.8457119,24.639697 48.8457119,24.639697 C48.7595333,24.5866667 48.4904143,24.1836364 48.4904143,24.1836364 C48.3362,23.9487879 48.352831,23.2412121 48.352831,23.2412121 C48.3482952,23.0427273 48.3029381,22.62 48.3029381,22.62 C48.224319,22.37 48.383069,21.9427273 48.383069,21.9427273 C48.6355571,21.3442424 49.6802833,20.7184848 49.6802833,20.7184848 C50.4271643,20.3033333 51.7848548,19.050303 51.7848548,19.050303 L50.9351643,18.5578788 C50.5632357,18.5851515 50.0945452,18.8684848 50.0945452,18.8684848 L48.6839381,20.0972727 C48.4994857,20.3381818 47.970319,20.5381818 47.970319,20.5381818 C47.3852119,20.8033333 47.2582119,21.2836364 47.2582119,21.2836364 C47.0132833,21.7124242 47.0465452,22.1624242 47.0465452,22.1624242 L47.2763548,24.0427273 C47.2990333,24.9290909 48.2953786,25.150303 48.2953786,25.150303 C48.8895571,25.2260606 49.3612714,25.900303 49.3612714,25.900303 C49.6908667,26.5412121 52.1371286,29.0866667 52.1371286,29.0866667 C52.5846524,29.7351515 53.3481643,29.8351515 53.3481643,29.8351515 C54.1661048,29.9381818 54.9462476,29.3912121 54.9462476,29.3912121 C56.1270452,28.1109091 56.7393667,28.9018182 56.7393667,28.9018182 C57.2760929,29.2745455 57.5527714,28.8912121 57.5527714,28.8912121 C58.0411167,28.5245455 59.0601405,28.0018182 59.0601405,28.0018182 C59.751081,27.7290909 59.2158667,27.2715152 59.2158667,27.2715152 L57.4832238,26.2457576 C56.5579381,25.7048485 54.3082238,27.5321212 54.3082238,27.5321212 C53.7200929,28.039697 52.9974024,27.3518182 52.9974024,27.3518182 C51.1044976,25.4230303 50.986569,24.9927273 50.986569,24.9927273 C52.0222238,22.7881818 54.0542238,22.9987879 54.0542238,22.9987879 C56.3251048,23.2381818 58.1681167,21.2427273 58.1681167,21.2427273 C58.6640214,20.9851515 58.6247119,21.7412121 58.6247119,21.7412121 C58.2920929,22.6609091 57.4620571,23.1609091 57.4620571,23.1609091 C59.1826048,24.289697 61.5668786,24.8245455 61.5668786,24.8245455 C63.0742476,25.2624242 64.5846405,26.5048485 64.5846405,26.5048485 C65.623319,27.2321212 66.4684738,27.0472727 66.4684738,27.0472727 C67.8231405,26.9336364 68.8330929,23.4230303 68.8330929,23.4230303 C69.0629024,22.7942424 69.3320214,23.0442424 69.3320214,23.0442424 C69.7871048,24.1730303 68.1028429,27.1745455 68.1028429,27.1745455 C68.0469024,31.6306061 71.7767714,33.3124242 71.7767714,33.3124242 C72.5811048,33.5563636 73.3809024,34.1806061 73.3809024,34.1806061 C75.8649619,36.0124242 76.0781405,38.7442424 76.0781405,38.7442424 C75.5519976,38.7063636 75.4612833,38.1124242 75.4612833,38.1124242 C74.3938786,34.5821212 71.5499857,33.9154545 71.5499857,33.9154545 C69.625331,33.3351515 68.9102,32.5472727 68.9102,32.5472727 C67.5222714,31.27 67.3499143,29.1912121 67.3499143,29.1912121 L66.2855333,28.6881818 C66.4095095,29.1563636 66.3187952,30.3351515 66.3187952,30.3351515 C66.0451405,31.0730303 66.59245,31.5730303 66.59245,31.5730303 C67.0293905,32.0093939 68.0710929,33.42 68.0710929,33.42 C68.512569,34.2684848 70.9452238,34.8987879 70.9452238,34.8987879 C73.0618905,35.5427273 73.7135214,37.7442424 73.7135214,37.7442424 C74.2184976,39.2866667 75.8861286,39.5033333 75.8861286,39.5033333 C76.7191881,39.6033333 76.8809619,41.7245455 76.8809619,41.7245455 C76.9338786,42.8866667 78.2310929,43.0548485 78.2310929,43.0548485 C78.7632833,43.1124242 79.4134024,43.5412121 79.4134024,43.5412121 C79.6401881,43.0942424 79.7792833,42.4336364 79.7792833,42.4336364 C79.9531524,41.3927273 79.6054143,41.0624242 79.6054143,41.0624242 C79.0686881,40.7745455 79.0475214,40.1245455 79.0475214,40.1245455 C79.1457952,39.2624242 78.3974024,38.6563636 78.3958905,38.6563636 C77.5643429,37.6654545 77.6369143,35.8745455 77.6369143,35.8745455 C77.6172595,35.1124242 77.7246048,34.2472727 77.7246048,34.2472727 C77.6202833,33.7230303 76.6481286,33.5139394 76.6481286,33.5139394 C75.9949857,33.2548485 75.8755452,33.0215152 75.8755452,33.0215152 L74.8610571,31.5139394 C74.4588905,30.5472727 75.6064262,29.9093939 75.6064262,29.9093939 C77.404081,28.5533333 78.1872476,26.4033333 78.1872476,26.4033333 Z M80.8088905,38.3806061 C80.8088905,38.3806061 81.2110571,39.3215152 81.5073905,39.6548485 C81.5073905,39.6548485 82.0350452,40.2018182 81.309331,40.4457576 C81.309331,40.4457576 80.4974381,40.7836364 80.0756167,39.9624242 C80.0756167,39.9624242 79.6794976,38.8760606 79.658331,38.3366667 C79.658331,38.3366667 79.5555214,37.6821212 80.1784262,37.8351515 C80.4551048,37.8987879 80.6954976,38.1260606 80.8088905,38.3806061 Z M81.1142952,41.37 C81.3184024,41.2760606 81.5285571,41.2018182 81.7553429,41.1866667 C82.8272833,41.2578788 82.1378548,42.6321212 82.1378548,42.6321212 C81.9231643,43.2078788 81.976081,43.6033333 81.976081,43.6033333 C82.007831,44.0184848 81.8702476,44.2260606 81.8702476,44.2260606 C81.4272595,44.7245455 80.3659024,43.9472727 80.3659024,43.9472727 C80.6244381,43.4775758 80.7983071,41.7760606 80.7983071,41.7760606 C80.8361048,41.4230303 81.1142952,41.37 81.1142952,41.37 Z M41.5008786,18.4472727 C41.5008786,18.4472727 40.8250571,18.0972727 40.6904976,17.9654545 C40.6904976,17.9654545 39.9572238,17.450303 40.6194381,16.5260606 C40.6194381,16.5260606 41.0095095,16.0154545 41.6777714,17.0412121 C41.6777714,17.0412121 42.0481881,17.5578788 41.8803667,18.2533333 C41.7957,18.4912121 41.7095214,18.5412121 41.5008786,18.4472727 Z M40.8401762,12.5518182 C40.8401762,12.5518182 40.0282833,11.9790909 41.1349976,10.3321212 C41.1349976,10.3321212 41.3073548,10.0366667 41.685331,9.86848485 C41.685331,9.86848485 43.3922714,9.10181818 43.7868786,8.80484848 C43.7868786,8.80484848 44.5201524,8.45636364 44.6350571,9.43969697 C44.6350571,9.43969697 44.5972595,9.69575758 44.5866762,9.89878788 C44.5866762,9.89878788 44.6078429,11.3336364 44.6199381,11.6578788 C44.6199381,11.6578788 44.6426167,11.9109091 44.5519024,12.0851515 C44.5519024,12.0851515 43.9970333,11.9593939 43.9667952,10.7518182 C43.9667952,10.7518182 43.9426048,10.3230303 43.7914143,10.2669697 C43.7914143,10.2669697 43.7037238,10.239697 43.5071762,10.3730303 C43.5071762,10.3730303 42.4307,10.8018182 42.1857714,10.8548485 C41.5235571,10.9972727 41.0533548,12.07 40.8401762,12.5518182 Z M55.971319,6.7230303 C55.971319,6.7230303 54.5667595,7.34272727 53.3708429,9.50787879 C53.3708429,9.50787879 53.6898548,6.67757576 55.6250929,5.62909091 C55.6250929,5.62909091 56.2102,5.22151515 56.2948667,5.89727273 C56.3190571,6.22909091 56.2479976,6.52757576 55.971319,6.7230303 Z" id="Fill-1" fill="#FFFFFF"></path>
                    <g id="Group-5" transform="translate(0.000000, 31.446667)">
                        <mask id="mask-2" fill="white">
                            <use xlink:href="#path-1"></use>
                        </mask>
                        <g id="Clip-4"></g>
                        <path d="M4.17255476,8.95560606 L5.69655476,8.95560606 C6.09418571,8.95560606 6.7564,8.95560606 7.30824524,8.71166667 C7.85857857,8.46924242 8.30005476,7.96015152 8.30005476,6.98742424 C8.30005476,6.01318182 7.8374119,5.5480303 7.2628881,5.30560606 C6.68987619,5.06166667 6.00498333,5.06166667 5.54082857,5.06166667 L4.17255476,5.06166667 L4.17255476,8.95560606 Z M5.34276905,1.38893939 C8.36657857,1.38893939 9.49294762,1.85409091 10.3774119,2.58287879 C11.6564833,3.64651515 12.297531,5.26015152 12.297531,6.92075758 C12.297531,8.57984848 11.6126381,10.3283333 10.5754714,11.2131818 C9.44910238,12.164697 8.3454119,12.6283333 5.80692381,12.6283333 L4.17255476,12.6283333 L4.17255476,17.7616667 L-0.000302380952,17.7616667 L-0.000302380952,1.38893939 L5.34276905,1.38893939 Z" id="Fill-3" fill="#FFFFFF" mask="url(#mask-2)"></path>
                    </g>
                    <path d="M16.5328298,43.079697 C16.5328298,44.8493939 17.8799369,46.1554545 19.4689488,46.1554545 C21.0594726,46.1554545 22.4050679,44.8493939 22.4050679,43.0569697 C22.4050679,41.2660606 21.0594726,39.96 19.4689488,39.96 C17.8799369,39.96 16.5328298,41.2660606 16.5328298,43.0569697 L16.5328298,43.079697 Z M12.8679726,43.0357576 C12.8679726,40.0493939 15.0103417,36.5312121 19.4689488,36.5312121 C23.9290679,36.5312121 26.0714369,40.0493939 26.0714369,43.0569697 C26.0714369,46.0660606 23.9290679,49.5842424 19.4689488,49.5842424 C15.0103417,49.5842424 12.8679726,46.0660606 12.8679726,43.0569697 L12.8679726,43.0357576 Z" id="Fill-6" fill="#FFFFFF"></path>
                    <polygon id="Fill-8" fill="#FFFFFF" points="26.3100155 36.9287879 30.1079202 36.9287879 31.984194 44.5621212 33.9935155 36.9287879 37.0838488 36.9287879 39.159694 44.5621212 40.9921226 36.9287879 44.7673488 36.9287879 41.0132893 49.2090909 37.6145274 49.2090909 35.5160036 41.2651515 33.4628369 49.2090909 30.0625631 49.2090909"></polygon>
                    <path d="M54.3237964,41.5527273 C54.236106,40.9784848 53.4846893,39.6057576 51.5857369,39.6057576 C49.6882964,39.6057576 48.9368798,40.9784848 48.8476774,41.5527273 L54.3237964,41.5527273 Z M48.805344,44.3406061 C48.9595583,45.6466667 50.1962964,46.5087879 51.631094,46.5087879 C52.8013083,46.5087879 53.4181655,46.0012121 53.8596417,45.3587879 L57.6137012,45.3587879 C57.0180107,46.73 56.156225,47.7921212 55.1190583,48.499697 C54.1030583,49.23 52.8889988,49.6057576 51.631094,49.6057576 C48.1204512,49.6057576 45.138975,46.7527273 45.138975,43.1012121 C45.138975,39.6724242 47.8331893,36.5087879 51.5645702,36.5087879 C53.440844,36.5087879 55.0525345,37.2390909 56.2000702,38.4557576 C57.7467488,40.1148485 58.2093917,42.0830303 57.9221298,44.3406061 L48.805344,44.3406061 Z" id="Fill-10" fill="#FFFFFF"></path>
                    <path d="M60.0390988,36.9287879 L63.4832179,36.9287879 L63.4832179,38.3 C63.8370036,37.6363636 64.4780512,36.5090909 66.5962298,36.5090909 L66.5962298,40.2030303 L66.4631821,40.2030303 C64.5869083,40.2030303 63.703956,40.8893939 63.703956,42.6151515 L63.703956,49.2090909 L60.0390988,49.2090909 L60.0390988,36.9287879 Z" id="Fill-12" fill="#FFFFFF"></path>
                    <path d="M92.8633071,45.5359091 L94.8287833,45.5359091 C95.0933667,45.5359091 95.6225333,45.5359091 96.0640095,45.3359091 C96.5281643,45.1374242 96.9031167,44.7389394 96.9031167,43.964697 C96.9031167,43.2571212 96.549331,42.9025758 96.1078548,42.725303 C95.6890571,42.5480303 95.1583786,42.5480303 94.8287833,42.5480303 L92.8633071,42.5480303 L92.8633071,45.5359091 Z M92.8633071,39.0525758 L94.3434619,39.0525758 C94.6292119,39.0525758 95.0706881,39.0525758 95.4456405,38.8980303 C95.8205929,38.7207576 96.1078548,38.3889394 96.1078548,37.7480303 C96.1078548,37.1283333 95.8205929,36.8177273 95.468319,36.6631818 C95.1145333,36.5086364 94.6730571,36.5086364 94.3434619,36.5086364 L92.8633071,36.5086364 L92.8633071,39.0525758 Z M88.69045,32.8359091 L94.6957357,32.8359091 C96.37395,32.8359091 97.7195452,33.2116667 98.6478548,33.9419697 C99.597331,34.6495455 100.105331,35.7343939 100.105331,37.1283333 C100.105331,38.3889394 99.5308071,39.6722727 98.2063786,40.4237879 C100.832557,41.3540909 100.899081,43.545 100.899081,44.2298485 C100.899081,45.5359091 100.392593,46.9737879 99.3977595,47.7919697 C97.89795,49.0540909 96.8154262,49.2086364 94.0562,49.2086364 L88.69045,49.2086364 L88.69045,32.8359091 Z" id="Fill-14" fill="#FFFFFF"></path>
                    <path d="M114.164987,49.2083333 L110.743546,49.2083333 L110.743546,47.9037879 C110.323237,48.5007576 109.550654,49.6280303 107.343273,49.6280303 C103.193094,49.6280303 102.772785,46.2659091 102.772785,44.6068182 L102.772785,36.9280303 L106.437642,36.9280303 L106.437642,43.6325758 C106.437642,44.9825758 106.724904,46.1765152 108.380439,46.1765152 C110.212868,46.1765152 110.50013,44.8719697 110.50013,43.6113636 L110.50013,36.9280303 L114.164987,36.9280303 L114.164987,49.2083333 Z" id="Fill-16" fill="#FFFFFF"></path>
                    <mask id="mask-4" fill="white">
                        <use xlink:href="#path-3"></use>
                    </mask>
                    <g id="Clip-19"></g>
                    <polygon id="Fill-18" fill="#FFFFFF" mask="url(#mask-4)" points="116.811274 49.2087879 120.476131 49.2087879 120.476131 32.8360606 116.811274 32.8360606"></polygon>
                    <polygon id="Fill-20" fill="#FFFFFF" mask="url(#mask-4)" points="123.123476 49.2087879 126.788333 49.2087879 126.788333 32.8360606 123.123476 32.8360606"></polygon>
                </g>
            </g>
        </g>
    </g>
</svg>