<?xml version="1.0" encoding="UTF-8"?>
<svg width="122px" height="28px" viewBox="0 0 122 28" version="1.1" xmlns="http://www.w3.org/2000/svg" xmlns:xlink="http://www.w3.org/1999/xlink">
    <title>lifebook</title>
    <defs>
        <polygon id="path-1" points="14.7439024 1.02 1.24302439 1.02 1.24302439 28.1154 14.7439024 28.1154 14.7439024 1.02"></polygon>
        <polygon id="path-3" points="0.943912195 19.5 16.6510829 19.5 16.6510829 0.04095 0.943912195 0.04095 0.943912195 19.5"></polygon>
        <polygon id="path-5" points="1.0183122 28.5 17.7326049 28.5 17.7326049 1.0206 1.0183122 1.0206 1.0183122 28.5"></polygon>
    </defs>
    <g id="Page-1" stroke="none" stroke-width="1" fill="none" fill-rule="evenodd">
        <g id="LeadsGen-Mockup" transform="translate(-535.000000, -2582.000000)">
            <g id="lifebook" transform="translate(535.000000, 2581.000000)">
                <g id="Page-1">
                    <polygon id="Fill-1" fill="#FFFFFF" points="5.57319512 1.5006 -0.000756097561 2.2671 -0.000756097561 28.5966 5.57319512 28.5966"></polygon>
                    <path d="M9.052,7.56435 L14.6259512,7.56435 L14.6259512,1.69185 L9.052,1.69185 L9.052,7.56435 Z M9.052,28.59585 L14.6259512,28.59585 L14.6259512,9.90435 L9.052,9.90435 L9.052,28.59585 Z" id="Fill-2" fill="#FFFFFF"></path>
                    <g id="Group-18" transform="translate(15.121951, 0.479850)">
                        <g id="Group-5">
                            <mask id="mask-2" fill="white">
                                <use xlink:href="#path-1"></use>
                            </mask>
                            <g id="Clip-4"></g>
                            <path d="M14.0498049,5.8944 C13.275561,5.7399 12.2306341,5.6259 11.5713171,5.6259 C9.79297561,5.6259 9.67653659,6.3939 9.67653659,7.6209 L9.67653659,9.8094 L14.1269268,9.8094 L13.7398049,14.3379 L9.67653659,14.3379 L9.67653659,28.1154 L4.10409756,28.1154 L4.10409756,14.3379 L1.24302439,14.3379 L1.24302439,9.8094 L4.10409756,9.8094 L4.10409756,7.0074 C4.10409756,3.1704 5.92326829,1.0194 10.4900976,1.0194 C12.074878,1.0194 13.2362439,1.2504 14.7439024,1.5579 L14.0498049,5.8944 Z" id="Fill-3" fill="#FFFFFF" mask="url(#mask-2)"></path>
                        </g>
                        <g id="Group-8" transform="translate(13.609756, 9.000000)">
                            <mask id="mask-4" fill="white">
                                <use xlink:href="#path-3"></use>
                            </mask>
                            <g id="Clip-7"></g>
                            <path d="M11.3886439,6.75795 C11.3886439,5.45295 11.001522,4.37895 9.06893659,4.37895 C7.13181463,4.37895 6.51332683,5.45295 6.51332683,6.75795 L6.51332683,7.56345 L11.3886439,7.56345 L11.3886439,6.75795 Z M6.51332683,11.70795 L6.51332683,12.24645 C6.51332683,14.39445 7.36620488,14.97195 9.91727805,14.97195 C11.660839,14.97195 13.9805463,14.66295 15.6469854,14.16495 L16.4590341,18.30945 C14.7563024,18.92445 12.0071317,19.50045 9.37742439,19.50045 C3.26361951,19.50045 0.943912195,16.50645 0.943912195,11.89995 L0.943912195,7.52595 C0.943912195,3.49545 2.76005854,0.04095 9.02810732,0.04095 C15.2961561,0.04095 16.6510829,3.72645 16.6510829,7.79295 L16.6510829,11.70795 L6.51332683,11.70795 Z" id="Fill-6" fill="#FFFFFF" mask="url(#mask-4)"></path>
                        </g>
                        <g id="Group-11" transform="translate(31.756098, 0.000000)">
                            <mask id="mask-6" fill="white">
                                <use xlink:href="#path-5"></use>
                            </mask>
                            <g id="Clip-10"></g>
                            <path d="M6.58923902,23.6256 C7.4012878,23.7021 8.09992195,23.7021 8.87265366,23.7021 C11.6581171,23.7021 12.1631902,22.4361 12.1631902,20.6706 L12.1631902,15.8346 C12.1631902,14.6061 11.6188,13.8396 10.1489463,13.8396 C8.94977561,13.8396 7.63265366,14.3376 6.58923902,14.8746 L6.58923902,23.6256 Z M8.67758049,28.5006 C6.66636098,28.5006 3.61021463,28.3071 1.0183122,27.8856 L1.0183122,1.7871 L6.58923902,1.0206 L6.58923902,10.0776 C8.09992195,9.5016 9.87977561,9.0411 11.9272878,9.0411 C16.1085073,9.0411 17.7326049,11.6136 17.7326049,15.7956 L17.7326049,20.6316 C17.7326049,25.0836 16.4563122,28.5006 8.67758049,28.5006 L8.67758049,28.5006 Z" id="Fill-9" fill="#FFFFFF" mask="url(#mask-6)"></path>
                        </g>
                        <path d="M62.4872293,21.093 L62.4872293,16.449 C62.4872293,14.6835 61.5602537,13.686 59.5460098,13.686 C57.5347902,13.686 56.6063024,14.6835 56.6063024,16.449 L56.6063024,21.093 C56.6063024,22.8585 57.5347902,23.856 59.5460098,23.856 C61.5602537,23.856 62.4872293,22.8585 62.4872293,21.093 M51.0338634,20.9385 L51.0338634,16.602 C51.0338634,12.7635 52.8530341,9.0405 59.5460098,9.0405 C66.2404976,9.0405 68.0611805,12.7635 68.0611805,16.602 L68.0611805,20.9385 C68.0611805,24.777 66.2404976,28.5 59.5460098,28.5 C52.8530341,28.5 51.0338634,24.777 51.0338634,20.9385" id="Fill-12" fill="#FFFFFF"></path>
                        <path d="M81.057439,21.093 L81.057439,16.449 C81.057439,14.6835 80.1289512,13.686 78.1177317,13.686 C76.1065122,13.686 75.175,14.6835 75.175,16.449 L75.175,21.093 C75.175,22.8585 76.1065122,23.856 78.1177317,23.856 C80.1289512,23.856 81.057439,22.8585 81.057439,21.093 M69.6055854,20.9385 L69.6055854,16.602 C69.6055854,12.7635 71.4217317,9.0405 78.1177317,9.0405 C84.8091951,9.0405 86.6283659,12.7635 86.6283659,16.602 L86.6283659,20.9385 C86.6283659,24.777 84.8091951,28.5 78.1177317,28.5 C71.4217317,28.5 69.6055854,24.777 69.6055854,20.9385" id="Fill-14" fill="#FFFFFF"></path>
                        <path d="M100.246439,9.4248 L106.202976,9.4248 L101.250537,18.7128 L106.435854,28.1163 L100.477805,28.1163 L95.4482439,18.7128 L100.246439,9.4248 Z M89.140878,28.1163 L89.140878,1.7883 L94.7133171,1.0203 L94.7133171,28.1163 L89.140878,28.1163 Z" id="Fill-16" fill="#FFFFFF"></path>
                    </g>
                </g>
            </g>
        </g>
    </g>
</svg>