<?xml version="1.0" encoding="UTF-8"?>
<svg width="168px" height="28px" viewBox="0 0 168 28" version="1.1" xmlns="http://www.w3.org/2000/svg" xmlns:xlink="http://www.w3.org/1999/xlink">
    <title>mailbanana</title>
    <defs>
        <polygon id="path-1" points="29.4699243 0.465526316 0.268194595 0.465526316 0.268194595 27.1266 29.4699243 27.1266 29.4699243 0.465526316"></polygon>
        <polygon id="path-3" points="0.000570518223 27.4736842 69.8629906 27.4736842 69.8629906 1.45992105 0.000570518223 1.45992105"></polygon>
    </defs>
    <g id="Page-1" stroke="none" stroke-width="1" fill="none" fill-rule="evenodd">
        <g id="LeadsGen-Mockup" transform="translate(-993.000000, -2583.000000)">
            <g id="mailbanana" transform="translate(993.000000, 2582.000000)">
                <g id="Page-1">
                    <g id="Group-3" transform="translate(69.621622, 1.061247)">
                        <mask id="mask-2" fill="white">
                            <use xlink:href="#path-1"></use>
                        </mask>
                        <g id="Clip-2"></g>
                        <path d="M18.1094919,2.42470526 C14.9840865,2.42470526 11.8163027,2.80781053 8.73478919,3.44733684 C9.15554595,3.61675789 9.36743784,4.08533684 9.36743784,4.51117895 C9.36743784,7.23717895 9.0723027,10.0043895 8.90278919,12.7303895 C11.0565189,12.1778632 13.4221405,12.0496526 15.660627,12.0496526 C16.7155459,12.0496526 17.7719784,12.0496526 18.7845189,12.2206 C21.0653838,11.2819158 26.9786811,8.81386316 26.9786811,5.91691579 C26.9786811,2.80781053 20.3056,2.42470526 18.1094919,2.42470526 M18.6165189,14.3925474 C15.2807351,15.3709158 12.1553297,16.6484421 8.65003243,16.9903368 L8.65003243,18.1396526 C8.65003243,19.6308632 8.73478919,21.0793368 8.86041081,22.5690211 C9.15554595,22.3996 9.49457297,22.3126 9.83208649,22.3126 C11.2260324,22.3126 11.3531676,22.6117579 11.8586811,23.8038105 C12.238573,24.6127579 14.646573,24.9958632 15.4487351,24.9958632 C18.7845189,24.9958632 23.0511135,22.4835474 23.0511135,18.7364421 C23.0511135,16.0959158 21.1077622,14.5619684 18.6165189,14.3925474 M21.9523027,13.0295474 C24.1907892,14.0079158 25.4999784,16.0959158 25.4999784,18.5227579 C25.4999784,23.6328632 19.6714378,27.0411263 15.1112216,27.0411263 C13.3797622,27.0411263 10.2543568,26.1467053 8.98754595,24.9531263 L8.98754595,25.5071789 C8.98754595,26.2306526 8.56527568,27.1266 7.76311351,27.1266 C7.00181622,27.1266 6.74905946,26.4031263 6.62192432,25.7636 C6.07403243,22.9521263 6.19965405,19.6736 6.19965405,16.7766526 C5.60938378,16.5644947 5.14473514,16.0531789 5.14473514,15.3709158 C5.14473514,14.5619684 5.77738378,13.9224421 6.45392432,13.5408632 C6.70668108,10.9003368 6.87619459,7.02349474 7.34084324,4.55391579 C7.4256,4.21354737 7.50884324,3.91591579 7.80397838,3.65949474 C6.2828973,4.01817895 5.9468973,4.20286316 3.64635676,5.21328421 L3.64635676,5.34149474 C3.68873514,6.27865263 3.49197838,6.83270526 2.29478919,7.00212632 C1.29132973,7.14407368 0.268194595,6.40533684 0.268194595,5.29875789 C0.268194595,4.31886316 1.07035676,3.63812632 1.83014054,3.21228421 C6.98970811,0.921284211 10.9293838,0.464915789 17.6872216,0.464915789 C21.1501405,0.464915789 29.4699243,0.806810526 29.4699243,5.74596842 C29.4699243,9.11149474 24.6554378,11.8787053 21.9523027,13.0295474" id="Fill-1" fill="#FFFFFF" mask="url(#mask-2)"></path>
                    </g>
                    <path d="M101.099827,17.0716895 C98.9460973,17.0716895 96.2853405,21.4155842 96.2853405,23.3738474 C96.2853405,24.3964789 96.9195027,25.1642158 97.9744216,25.1642158 C99.917773,25.1642158 101.479719,22.3954789 101.479719,20.6478474 C101.479719,20.1807947 101.354097,19.7122158 101.354097,19.2436368 C101.354097,18.5629 101.479719,17.8379 101.859611,17.2838474 C101.649232,17.1571632 101.394962,17.0716895 101.099827,17.0716895 L101.099827,17.0716895 Z M111.108692,20.1807947 C110.813557,22.9067947 108.405557,26.2280579 105.407286,26.2280579 C104.055719,26.2280579 103.0008,25.4191105 102.324259,24.2682684 C101.354097,25.8449526 99.7058811,27.3773737 97.7640432,27.3773737 C95.6526919,27.3773737 94.0468541,25.6740053 94.0468541,23.5875316 C94.0468541,20.2647421 97.9744216,14.7715316 101.522097,14.7715316 C102.536151,14.7715316 103.928584,15.3683211 103.928584,16.5603737 C103.928584,16.8167947 103.845341,17.0289526 103.718205,17.2426368 C103.928584,17.4547947 104.013341,17.7524263 104.013341,18.0515842 C104.013341,18.8605316 103.760584,19.6267421 103.760584,20.4356895 C103.760584,21.6277421 104.055719,24.0988474 105.619178,24.0988474 C108.447935,24.0988474 108.659827,18.9872158 110.264151,18.9872158 C110.813557,18.9872158 111.108692,19.4573211 111.108692,19.9243737 L111.108692,20.1807947 Z" id="Fill-4" fill="#FFFFFF"></path>
                    <path d="M125.171805,20.8197105 C124.369643,23.0756053 121.793643,27.3355526 119.090508,27.3355526 C115.120562,27.3355526 116.175481,22.9061842 115.585211,20.3938684 C115.542832,20.1801842 115.458076,19.8825526 115.162941,19.8825526 C113.473859,19.8825526 110.475589,26.0580263 109.3344,26.0580263 C108.784995,26.0580263 108.067589,25.7588684 108.067589,25.0781316 C108.067589,24.7377632 108.321859,24.3546579 108.532238,24.0555 C109.039265,23.3747632 109.292022,20.3938684 109.292022,19.5421842 C109.292022,18.6050263 108.91213,17.6251316 108.91213,16.7307105 C108.91213,15.9645 109.503914,15.3677105 110.263697,15.3677105 C111.9104,15.3677105 111.657643,19.1575526 111.657643,20.3083947 C112.671697,19.1575526 114.191265,17.6251316 115.837968,17.6251316 C119.6384,17.6251316 116.724886,24.9926579 119.428022,24.9926579 C121.8784,24.9926579 122.848562,19.2872895 124.369643,19.2872895 C124.917535,19.2872895 125.256562,19.7116053 125.256562,20.2656579 C125.256562,20.4350789 125.214184,20.6487632 125.171805,20.8197105" id="Fill-6" fill="#FFFFFF"></path>
                    <path d="M129.437038,17.0716895 C127.283308,17.0716895 124.622551,21.4155842 124.622551,23.3738474 C124.622551,24.3964789 125.256714,25.1642158 126.311632,25.1642158 C128.254984,25.1642158 129.81693,22.3954789 129.81693,20.6478474 C129.81693,20.1807947 129.691308,19.7122158 129.691308,19.2436368 C129.691308,18.5629 129.81693,17.8379 130.196822,17.2838474 C129.986443,17.1571632 129.733686,17.0716895 129.437038,17.0716895 L129.437038,17.0716895 Z M139.445903,20.1807947 C139.150768,22.9067947 136.742768,26.2280579 133.744497,26.2280579 C132.39293,26.2280579 131.338011,25.4191105 130.66147,24.2682684 C129.691308,25.8449526 128.043092,27.3773737 126.101254,27.3773737 C123.989903,27.3773737 122.384065,25.6740053 122.384065,23.5875316 C122.384065,20.2647421 126.311632,14.7715316 129.859308,14.7715316 C130.873362,14.7715316 132.265795,15.3683211 132.265795,16.5603737 C132.265795,16.8167947 132.182551,17.0289526 132.055416,17.2426368 C132.265795,17.4547947 132.350551,17.7524263 132.350551,18.0515842 C132.350551,18.8605316 132.097795,19.6267421 132.097795,20.4356895 C132.097795,21.6277421 132.39293,24.0988474 133.956389,24.0988474 C136.785146,24.0988474 136.997038,18.9872158 138.601362,18.9872158 C139.150768,18.9872158 139.445903,19.4573211 139.445903,19.9243737 L139.445903,20.1807947 Z" id="Fill-8" fill="#FFFFFF"></path>
                    <path d="M153.509016,20.8197105 C152.706854,23.0756053 150.130854,27.3355526 147.427719,27.3355526 C143.457773,27.3355526 144.512692,22.9061842 143.922422,20.3938684 C143.880043,20.1801842 143.795286,19.8825526 143.500151,19.8825526 C141.81107,19.8825526 138.8128,26.0580263 137.671611,26.0580263 C137.122205,26.0580263 136.4048,25.7588684 136.4048,25.0781316 C136.4048,24.7377632 136.65907,24.3546579 136.869449,24.0555 C137.376476,23.3747632 137.629232,20.3938684 137.629232,19.5421842 C137.629232,18.6050263 137.249341,17.6251316 137.249341,16.7307105 C137.249341,15.9645 137.841124,15.3677105 138.600908,15.3677105 C140.247611,15.3677105 139.994854,19.1575526 139.994854,20.3083947 C141.008908,19.1575526 142.528476,17.6251316 144.175178,17.6251316 C147.975611,17.6251316 145.062097,24.9926579 147.765232,24.9926579 C150.215611,24.9926579 151.185773,19.2872895 152.706854,19.2872895 C153.254746,19.2872895 153.593773,19.7116053 153.593773,20.2656579 C153.593773,20.4350789 153.551395,20.6487632 153.509016,20.8197105" id="Fill-10" fill="#FFFFFF"></path>
                    <path d="M157.774249,17.0716895 C155.620519,17.0716895 152.959762,21.4155842 152.959762,23.3738474 C152.959762,24.3964789 153.593924,25.1642158 154.648843,25.1642158 C156.592195,25.1642158 158.154141,22.3954789 158.154141,20.6478474 C158.154141,20.1807947 158.028519,19.7122158 158.028519,19.2436368 C158.028519,18.5629 158.154141,17.8379 158.534032,17.2838474 C158.323654,17.1571632 158.069384,17.0716895 157.774249,17.0716895 L157.774249,17.0716895 Z M167.783114,20.1807947 C167.487978,22.9067947 165.079978,26.2280579 162.081708,26.2280579 C160.730141,26.2280579 159.675222,25.4191105 158.998681,24.2682684 C158.028519,25.8449526 156.380303,27.3773737 154.438465,27.3773737 C152.327114,27.3773737 150.721276,25.6740053 150.721276,23.5875316 C150.721276,20.2647421 154.648843,14.7715316 158.196519,14.7715316 C159.210573,14.7715316 160.603005,15.3683211 160.603005,16.5603737 C160.603005,16.8167947 160.519762,17.0289526 160.392627,17.2426368 C160.603005,17.4547947 160.687762,17.7524263 160.687762,18.0515842 C160.687762,18.8605316 160.435005,19.6267421 160.435005,20.4356895 C160.435005,21.6277421 160.730141,24.0988474 162.2936,24.0988474 C165.122357,24.0988474 165.334249,18.9872158 166.938573,18.9872158 C167.487978,18.9872158 167.783114,19.4573211 167.783114,19.9243737 L167.783114,20.1807947 Z" id="Fill-12" fill="#FFFFFF"></path>
                    <path d="M42.7183135,18.5864053 L42.7183135,18.5848789 L42.7183135,18.5864053 Z" id="Fill-14" fill="#FFFFFF"></path>
                    <path d="M143.413276,19.1885368 L143.413276,19.1870105 L143.413276,19.1885368 Z" id="Fill-16" fill="#FFFFFF"></path>
                    <g id="Group-20" transform="translate(0.000000, 1.061247)">
                        <mask id="mask-4" fill="white">
                            <use xlink:href="#path-3"></use>
                        </mask>
                        <g id="Clip-19"></g>
                        <path d="M44.7234162,19.0201842 C44.0529297,21.7400789 42.7679568,25.0231842 40.4507676,25.2109211 C40.3856865,25.2155 40.3221189,25.2200789 40.2615784,25.2200789 C39.3004973,25.2200789 38.760173,24.5851316 38.6587676,23.3320263 C38.5316324,21.7660263 39.2021189,19.9313947 40.3660108,18.6569211 C41.1061189,17.8449211 41.9415784,17.3992368 42.7180108,17.3992368 L42.7346595,17.3992368 C43.7139027,17.4068684 44.4010378,18.2005526 44.7173622,18.9408158 L44.7340108,18.9789737 L44.7234162,19.0201842 Z M65.976173,3.80892105 L66.0079568,3.80739474 C66.2274162,3.80739474 66.4196324,3.91881579 66.5785514,4.13707895 C67.3398486,5.17344737 67.3519568,8.95871053 66.0427676,13.2644474 C65.2950919,15.7248684 64.2901189,18.0509737 63.1368216,19.9878684 L62.952173,20.2961842 L62.9052541,19.9390263 C62.7705514,18.8980789 62.7024432,17.8128684 62.6555243,16.8894474 C62.3225514,10.3812368 64.2749838,3.89744737 65.976173,3.80892105 L65.976173,3.80892105 Z M48.3255784,26.3816053 C50.5655784,26.1999737 52.3424432,23.1290263 53.0023351,21.8163947 L53.1718486,21.4775526 L53.2369297,21.8515 C53.5532541,23.6968158 54.5491459,26.7982895 57.6639568,26.8227105 L57.6896865,26.8227105 C59.0367135,26.8227105 60.5653622,25.9923947 62.1106595,24.4202895 L62.224173,24.3058158 L62.3059027,24.4447105 C63.3456865,26.1984474 64.7411459,27.1295 66.2259027,27.0531842 C68.4129297,26.9387105 69.7402811,25.3772895 69.8568216,24.2920789 C69.8855784,24.0142895 69.8129297,23.7548158 69.6570378,23.5777632 C69.4602811,23.3579737 69.1757405,23.3320263 68.9653622,23.5350263 L68.8654703,23.6296579 C68.3569297,24.1226579 67.4079568,25.0415 66.374227,25.0949211 C65.1089297,25.1575 64.1735784,24.3943421 63.568173,22.8207105 L63.5439568,22.7550789 L63.5863351,22.6986053 C67.0659027,18.1089737 69.5072,11.1077632 69.2665514,6.41128947 C69.1545514,4.23781579 68.5279568,1.64613158 66.1744432,1.64613158 C66.1169297,1.64613158 66.0579027,1.64765789 65.9988757,1.65071053 C65.0968216,1.69802632 64.2764973,2.1315 63.5606054,2.93892105 C61.3766054,5.40239474 60.2339027,11.4679737 60.6486054,18.3913421 C60.7348757,19.8291316 60.9815784,21.1738158 61.384173,22.3857105 L61.4068757,22.4528684 L61.3614703,22.5078158 C60.0704432,24.0280263 58.7960649,24.8675 57.7744432,24.8675 C55.3149838,24.8675 55.398227,20.7082895 55.5919568,17.2603421 C55.6343351,16.5170263 55.6963892,16.0423421 55.4784432,15.7737105 C55.3225514,15.5813947 55.062227,15.4852368 54.6823351,15.4821842 L54.6369297,15.4821842 C53.7621189,15.4821842 53.5789838,15.6638158 53.1309838,16.9733947 C52.200173,19.6948158 50.3612541,24.2615526 48.5117405,24.2615526 C47.9986595,24.2569737 47.608173,24.0799211 47.3402811,23.7349737 C46.4427676,22.5810789 47.1238486,19.6993947 47.6717405,17.3855 C47.7701189,16.9688158 47.8639568,16.5689211 47.944173,16.1995526 C48.0652541,15.6500789 48.0274162,15.2501842 47.8352,15.0075 C47.6429838,14.7663421 47.2570378,14.6686579 46.7484973,14.7083421 C45.9569297,14.7724474 45.4499027,15.1067105 45.206227,16.6269211 L45.1562811,16.9428684 L44.9731459,16.7169737 C44.6265514,16.2026053 43.9515243,15.5890263 42.6998486,15.5890263 C42.5908757,15.5890263 42.4773622,15.5936053 42.3593081,15.6027632 C41.0228757,15.7126579 39.5017946,16.6528684 38.3878486,18.0525 C37.0877405,19.6887105 36.4672,21.7599211 36.6397405,23.8830263 C36.6488216,23.9959737 36.6654703,24.1028158 36.6806054,24.2111842 L36.6896865,24.2707105 L36.6503351,24.3149737 C35.8723892,25.1697105 35.0793081,25.6031842 34.2937946,25.6031842 C33.0829838,25.5940263 32.3867676,24.6843421 32.3867676,23.1717632 C32.3867676,20.6258684 34.0985514,12.9485 34.0985514,10.1690789 C34.0985514,7.21107895 32.7908757,5.60081579 30.5221189,5.5825 L30.4873081,5.5825 C27.174227,5.5825 24.5906595,9.37539474 22.1190919,17.1779211 C21.8935784,17.8922368 21.6468757,18.7164474 21.4349838,19.4307632 L21.0883892,20.6045 L21.1913081,19.3849737 C21.4213622,16.6666053 21.5787676,14.0230263 21.6604973,11.5244474 C21.7830919,7.75444737 21.2775784,5.32760526 20.1152,4.10655263 C19.4870919,3.44718421 18.6576865,3.12360526 17.5770378,3.11444737 L17.5482811,3.11444737 C13.4935784,3.11444737 11.550227,10.0118684 10.1366054,14.8777632 C9.70979459,16.3476053 8.86676757,19.6612368 8.30525405,21.9262895 L8.63822703,21.3813947 C8.88795676,18.5287105 9.6099027,11.3825 9.56298378,7.50718421 C9.51152432,3.34797368 8.13876757,1.48281579 5.11022703,1.45992105 L5.07238919,1.45992105 C3.45595676,1.45992105 2.33292973,2.27039474 1.67606486,2.95113158 C0.622659459,4.04244737 -0.0357189189,5.63897368 0.00211891892,7.01571053 C0.0233081081,7.85365789 0.533362162,8.60002632 0.919308108,8.60002632 C1.17206486,8.60002632 1.31130811,8.26118421 1.37184865,8.05971053 C2.30871351,4.93534211 3.52103784,3.41665789 5.07692973,3.41665789 C5.7232,3.42123684 6.20298378,3.61355263 6.5632,4.00276316 C7.77855135,5.31844737 7.55757838,8.87018421 7.1564973,15.3188684 C7.02784865,17.3961842 6.88103784,19.7512895 6.75692973,22.4299737 C6.73574054,22.8893947 6.70698378,23.3335526 6.67974054,23.7548158 C6.56168649,25.6153947 6.46784865,27.0852368 7.16860541,27.1951316 C8.07822703,27.3386053 8.67001081,26.9646579 8.97422703,26.0565 C9.42374054,24.7087632 10.4317405,21.0242368 12.3826595,14.2916579 C14.2548757,7.83076316 15.6684973,5.47871053 17.4786595,5.47871053 C19.5688216,5.47871053 19.7247135,9.09913158 19.3417946,16.7383421 C19.2600649,18.3577632 19.1510919,20.1908684 19.0678486,22.1872895 C19.0557405,22.4681316 19.0421189,22.7398158 19.0300108,23.0023421 C18.9482811,24.6553421 18.886227,25.9588158 19.3539027,26.4594474 C19.4992,26.6151316 19.6974703,26.6914474 19.9608216,26.6929737 C20.8674162,26.6929737 21.1398486,25.8916579 21.5908757,24.5637632 C21.6710919,24.3302368 21.7558486,24.0799211 21.8496865,23.8173947 C24.9554162,15.1784474 27.2514162,7.68271053 30.3329297,7.68271053 C31.2576865,7.68271053 31.9766054,8.43976316 31.9766054,9.91723684 C31.9766054,13.3255 30.3238486,19.9130789 30.3238486,23.2511316 C30.3238486,24.4477632 30.6659027,25.5222895 31.3106595,26.2762895 C31.9735784,27.0516579 32.8998486,27.4652895 33.9895784,27.4744474 L34.0137946,27.4744474 C35.0444973,27.4744474 36.1190919,26.9692368 37.2073081,25.9725526 L37.310227,25.8794474 L37.3919568,25.9908684 C38.1093622,26.9616053 39.2656865,27.4836053 40.5143351,27.3874474 C42.4289297,27.2363421 44.0362811,25.5177105 44.6341189,23.8952368 L44.7506595,23.5777632 L44.8672,23.8952368 C45.3106595,25.0979737 46.2717405,26.5479737 48.3255784,26.3816053 L48.3255784,26.3816053 Z" id="Fill-18" fill="#FFFFFF" mask="url(#mask-4)"></path>
                    </g>
                    <path d="M55.4729946,10.1095526 C54.6178595,10.1095526 53.9261838,10.7887632 53.9201297,11.6251842 C53.9140757,12.4661842 54.5996973,13.1560789 55.4502919,13.1637105 L55.4624,13.2888684 L55.4624,13.1637105 C56.305427,13.1637105 56.9955892,12.4845 57.0016432,11.6480789 C57.0092108,10.8070789 56.3235892,10.1156579 55.4729946,10.1095526" id="Fill-23" fill="#FFFFFF"></path>
                </g>
            </g>
        </g>
    </g>
</svg>