<?xml version="1.0" encoding="UTF-8"?>
<svg width="160px" height="22px" viewBox="0 0 160 22" version="1.1" xmlns="http://www.w3.org/2000/svg" xmlns:xlink="http://www.w3.org/1999/xlink">
    <title>javastar</title>
    <defs>
        <polygon id="path-1" points="0.000603773585 21.4666667 13.7409811 21.4666667 13.7409811 1.16288 0.000603773585 1.16288 0.000603773585 21.4666667"></polygon>
    </defs>
    <g id="Page-1" stroke="none" stroke-width="1" fill="none" fill-rule="evenodd">
        <g id="LeadsGen-Mockup" transform="translate(-757.000000, -2586.000000)">
            <g id="javastar" transform="translate(757.000000, 2585.000000)">
                <g id="Page-1">
                    <g id="Group-3" transform="translate(0.000000, 0.814967)">
                        <mask id="mask-2" fill="white">
                            <use xlink:href="#path-1"></use>
                        </mask>
                        <g id="Clip-2"></g>
                        <path d="M11.914566,19.42028 C10.6964528,20.7849467 8.78550943,21.46728 6.18324528,21.46728 C4.99683019,21.46728 3.85116981,21.33388 2.74777358,21.0701467 C1.64437736,20.8064133 0.728150943,20.4614133 0.000603773585,20.0397467 L1.28060377,15.2174133 C1.96739623,15.5762133 2.6285283,15.8568133 3.264,16.05768 C3.89796226,16.2585467 4.48664151,16.3582133 5.0285283,16.3582133 C5.98550943,16.3582133 6.65267925,16.1113467 7.02701887,15.6130133 C7.40135849,15.1162133 7.5885283,14.25448 7.5885283,13.0278133 L7.5885283,1.16288 L13.7409811,1.16288 L13.7409811,13.5031467 C13.7409811,16.0837467 13.1326792,18.0556133 11.914566,19.42028" id="Fill-1" fill="#FFFFFF" mask="url(#mask-2)"></path>
                    </g>
                    <path d="M26.9207547,6.44996667 L24.7350943,13.3990333 L28.9826415,13.3990333 L26.9207547,6.44996667 Z M37.4762264,21.8047667 L31.3871698,21.8047667 L30.1690566,18.0941 L23.5486792,18.0941 L22.3924528,21.8047667 L16.3335849,21.8047667 L23.0475472,1.97723333 L30.8875472,1.97723333 L37.4762264,21.8047667 Z" id="Fill-4" fill="#FFFFFF"></path>
                    <polygon id="Fill-6" fill="#FFFFFF" points="51.0627925 21.8055333 43.2544906 21.8055333 36.9450566 1.978 43.3163774 1.978 47.1895849 15.8730667 51.0627925 1.978 57.4643019 1.978"></polygon>
                    <path d="M67.5209057,6.44996667 L65.3352453,13.3990333 L69.5827925,13.3990333 L67.5209057,6.44996667 Z M78.0778868,21.8047667 L71.9873208,21.8047667 L70.7692075,18.0941 L64.1488302,18.0941 L62.9926038,21.8047667 L56.9337358,21.8047667 L63.6492075,1.97723333 L71.4876981,1.97723333 L78.0778868,21.8047667 Z" id="Fill-8" fill="#FFFFFF"></path>
                    <path d="M88.2893585,17.23666 C88.997283,17.23666 89.5648302,17.1523267 89.9904906,16.98366 C90.4176604,16.81346 90.632,16.51906 90.632,16.0943267 C90.632,15.8627933 90.5474717,15.6619267 90.381434,15.4917267 C90.2153962,15.32306 89.9753962,15.1697267 89.6629434,15.0317267 C89.3504906,14.89526 88.9655849,14.7633933 88.506717,14.6361267 C88.0493585,14.50886 87.5391698,14.36166 86.9776604,14.19146 C86.2697358,13.97986 85.5301132,13.72686 84.7603019,13.4293933 C83.9889811,13.13346 83.2870943,12.74706 82.6531321,12.2717267 C82.0161509,11.7963933 81.4969057,11.2091267 81.0908679,10.51146 C80.6848302,9.81226 80.4810566,8.95666 80.4810566,7.94159333 C80.4810566,5.99579333 81.1482264,4.44099333 82.4810566,3.27872667 C83.8123774,2.11492667 85.8108679,1.53379333 88.4765283,1.53379333 C90.2259623,1.53379333 91.7399245,1.70246 93.0199245,2.03979333 C94.301434,2.38019333 95.4093585,2.79112667 96.346717,3.27872667 L95.3776604,8.38626 C94.2742642,7.83579333 93.1089811,7.39726 91.8818113,7.06912667 C90.6516226,6.74099333 89.5286038,6.57692667 88.506717,6.57692667 C87.9044528,6.57692667 87.4410566,6.65206 87.1180377,6.79926 C86.7950189,6.94799333 86.6335094,7.22246 86.6335094,7.62419333 C86.6335094,7.85726 86.7436981,8.06426 86.9610566,8.24212667 C87.181434,8.42306 87.466717,8.58252667 87.8199245,8.71899333 C88.1746415,8.85699333 88.5806792,8.99346 89.0380377,9.13146 C89.4969057,9.26946 89.9648302,9.40132667 90.4448302,9.52859333 C91.2146415,9.73866 91.9799245,9.99932667 92.7391698,10.30446 C93.4999245,10.6111267 94.1761509,10.99906 94.7693585,11.46366 C95.362566,11.92826 95.8470943,12.49406 96.221434,13.16106 C96.597283,13.8265267 96.7844528,14.6361267 96.7844528,15.5883267 C96.7844528,16.5819267 96.6018113,17.4911933 96.2365283,18.3161267 C95.8727547,19.1395267 95.3308679,19.8433267 94.6123774,20.4259933 C93.8953962,21.0071267 92.9987925,21.4609933 91.9286038,21.79066 C90.8553962,22.11726 89.6116226,22.2813267 88.1957736,22.2813267 C86.5716226,22.2813267 85.0516226,22.1065267 83.6357736,21.75846 C82.2199245,21.40886 81.0652075,20.9917933 80.1686038,20.5041933 L81.1059623,15.39666 C82.1670943,15.92566 83.3187925,16.3657267 84.5565283,16.7137933 C85.7957736,17.0633933 87.0395472,17.23666 88.2893585,17.23666" id="Fill-10" fill="#FFFFFF"></path>
                    <polygon id="Fill-12" fill="#FFFFFF" points="111.274868 7.08461333 111.274868 21.8061467 105.122415 21.8061467 105.122415 7.08461333 99.2205283 7.08461333 99.2205283 1.97708 117.178264 1.97708 117.178264 7.08461333"></polygon>
                    <path d="M127.45283,6.44996667 L125.26566,13.3990333 L129.514717,13.3990333 L127.45283,6.44996667 Z M138.009811,21.8047667 L131.919245,21.8047667 L130.701132,18.0941 L124.080755,18.0941 L122.924528,21.8047667 L116.86566,21.8047667 L123.579623,1.97723333 L131.418113,1.97723333 L138.009811,21.8047667 Z" id="Fill-14" fill="#FFFFFF"></path>
                    <path d="M149.251321,11.4628933 C150.188679,11.3586267 150.860377,11.1086933 151.266415,10.7176933 C151.672453,10.3266933 151.874717,9.72869333 151.874717,8.92522667 C151.874717,8.18616 151.645283,7.63569333 151.187925,7.27536 C150.730566,6.91656 149.939623,6.73562667 148.813585,6.73562667 L147.127547,6.73562667 L147.127547,11.4950933 L149.251321,11.4628933 Z M147.25283,21.8052267 L141.100377,21.8052267 L141.100377,1.97769333 L149.939623,1.97769333 C152.66566,1.97769333 154.732075,2.56496 156.138868,3.73796 C157.544151,4.91249333 158.246038,6.49336 158.246038,8.48056 C158.246038,9.75016 157.938113,10.88636 157.323774,11.8906933 C156.710943,12.89656 155.746415,13.6632267 154.436226,14.1906933 L159.276981,21.8052267 L152.467925,21.8052267 L148.970566,15.7776933 L147.25283,15.93716 L147.25283,21.8052267 Z" id="Fill-16" fill="#FFFFFF"></path>
                </g>
            </g>
        </g>
    </g>
</svg>