<?xml version="1.0" encoding="UTF-8" standalone="no"?>
<svg
   xmlns:dc="http://purl.org/dc/elements/1.1/"
   xmlns:cc="http://creativecommons.org/ns#"
   xmlns:rdf="http://www.w3.org/1999/02/22-rdf-syntax-ns#"
   xmlns:svg="http://www.w3.org/2000/svg"
   xmlns="http://www.w3.org/2000/svg"
   xmlns:sodipodi="http://sodipodi.sourceforge.net/DTD/sodipodi-0.dtd"
   xmlns:inkscape="http://www.inkscape.org/namespaces/inkscape"
   version="1.1"
   id="svg2"
   xml:space="preserve"
   width="645.08002"
   height="619.71997"
   viewBox="0 0 645.08002 619.71997"
   sodipodi:docname="5803448.eps"><metadata
     id="metadata8"><rdf:RDF><cc:Work
         rdf:about=""><dc:format>image/svg+xml</dc:format><dc:type
           rdf:resource="http://purl.org/dc/dcmitype/StillImage" /></cc:Work></rdf:RDF></metadata><defs
     id="defs6" /><sodipodi:namedview
     pagecolor="#ffffff"
     bordercolor="#666666"
     borderopacity="1"
     objecttolerance="10"
     gridtolerance="10"
     guidetolerance="10"
     inkscape:pageopacity="0"
     inkscape:pageshadow="2"
     inkscape:window-width="640"
     inkscape:window-height="480"
     id="namedview4" /><g
     id="g10"
     inkscape:groupmode="layer"
     inkscape:label="ink_ext_XXXXXX"
     transform="matrix(1.3333333,0,0,-1.3333333,0,619.72)"><g
       id="g12"
       transform="scale(0.1)"><path
         d="m 4408.65,3212.83 c 6.95,50.49 -64.31,92.02 -117.86,96.34 -25.52,2.06 -52.05,-1.85 -76.24,6.59 -52.41,18.26 -73.35,85.97 -124.49,107.54 -38.23,16.13 -82.24,1.77 -119.3,-16.88 -37.08,-18.66 -73.71,-42.13 -115.11,-44.78 -36.02,-2.31 -75.14,11.05 -106.65,-6.55 -23.48,-13.11 -35.78,-40.17 -57.43,-56.13 -21.18,-15.62 -48.79,-18.93 -75.07,-20.36 -26.27,-1.43 -53.48,-1.69 -77.4,-12.64 -23.92,-10.96 -43.72,-36.26 -38.75,-62.09 l 908.3,8.96"
         style="fill:#e7e8e5;fill-opacity:1;fill-rule:nonzero;stroke:none"
         id="path14" /><path
         d="m 2211.12,3676.32 c 6.95,50.49 -64.31,92.02 -117.85,96.34 -25.54,2.06 -52.06,-1.84 -76.25,6.58 -52.41,18.27 -73.34,85.98 -124.48,107.55 -38.24,16.12 -82.25,1.78 -119.32,-16.88 -37.06,-18.66 -73.69,-42.13 -115.1,-44.78 -36.02,-2.31 -75.14,11.05 -106.65,-6.54 -23.48,-13.12 -35.78,-40.18 -57.43,-56.14 -21.18,-15.62 -48.8,-18.93 -75.07,-20.36 -26.27,-1.43 -53.47,-1.69 -77.4,-12.64 -23.92,-10.96 -43.71,-36.25 -38.75,-62.09 l 908.3,8.96"
         style="fill:#e7e8e5;fill-opacity:1;fill-rule:nonzero;stroke:none"
         id="path16" /><path
         d="m 1232.23,2095.04 c 6.95,50.5 -64.31,92.03 -117.85,96.35 -25.54,2.05 -52.06,-1.85 -76.25,6.58 -52.407,18.26 -73.349,85.98 -124.485,107.55 -38.231,16.12 -82.25,1.77 -119.317,-16.89 -37.062,-18.65 -73.691,-42.13 -115.101,-44.78 -36.02,-2.31 -75.133,11.05 -106.645,-6.54 -23.488,-13.11 -35.785,-40.17 -57.434,-56.14 -21.175,-15.61 -48.796,-18.92 -75.066,-20.35 -26.273,-1.43 -53.477,-1.7 -77.398,-12.66 -23.926,-10.94 -43.715,-36.25 -38.75,-62.09 l 908.296,8.97"
         style="fill:#e7e8e5;fill-opacity:1;fill-rule:nonzero;stroke:none"
         id="path18" /><path
         d="m 3051.89,2777.54 c 4.24,30.85 -39.3,56.24 -72.02,58.87 -15.6,1.26 -31.81,-1.13 -46.6,4.03 -32.02,11.16 -44.81,52.53 -76.06,65.71 -23.36,9.86 -50.25,1.09 -72.91,-10.31 -22.65,-11.4 -45.03,-25.75 -70.33,-27.37 -22.01,-1.4 -45.91,6.76 -65.17,-4 -14.35,-8 -21.86,-24.54 -35.1,-34.3 -12.94,-9.54 -29.81,-11.56 -45.86,-12.43 -16.06,-0.88 -32.68,-1.04 -47.3,-7.73 -14.62,-6.7 -26.71,-22.15 -23.68,-37.94 l 555.03,5.47"
         style="fill:#e7e8e5;fill-opacity:1;fill-rule:nonzero;stroke:none"
         id="path20" /><path
         d="M 4838.12,2.60938 C 4838.12,1.16797 3760.42,0 2431.32,0 1101.76,0 24.2891,1.16797 24.2891,2.60938 c 0,1.42968 1077.4709,2.60937 2407.0309,2.60937 1329.1,0 2406.8,-1.17969 2406.8,-2.60937"
         style="fill:#17282f;fill-opacity:1;fill-rule:nonzero;stroke:none"
         id="path22" /><path
         d="M 3120.81,755.039 3876.83,4.98828 4024.46,5.39063 4076.96,755.039 H 3120.81"
         style="fill:#dadbd8;fill-opacity:1;fill-rule:nonzero;stroke:none"
         id="path24" /><path
         d="M 3735.57,684 2973.78,4.98828 3505.9,5.78906 3954.35,383 3735.57,684"
         style="fill:#dadbd8;fill-opacity:1;fill-rule:nonzero;stroke:none"
         id="path26" /><path
         d="m 3663.92,2624.36 939.04,-870.41 16.56,902.85 z"
         style="fill:#dadbd8;fill-opacity:1;fill-rule:nonzero;stroke:none"
         id="path28" /><path
         d="M 4296.6,2586.8 1756.82,5.39063 H 2257.3 L 4525.46,2293.38 4296.6,2586.8"
         style="fill:#dadbd8;fill-opacity:1;fill-rule:nonzero;stroke:none"
         id="path30" /><path
         d="m 1000.97,1630.89 908.96,-901.769 47.18,901.769 z"
         style="fill:#dadbd8;fill-opacity:1;fill-rule:nonzero;stroke:none"
         id="path32" /><path
         d="M 1632.01,1571.89 0,5.39063 H 525.863 L 1850.78,1270.87 1632.01,1571.89"
         style="fill:#dadbd8;fill-opacity:1;fill-rule:nonzero;stroke:none"
         id="path34" /><path
         d="M 1793.43,1940.48 3091.1,653.078 V 1940.48 H 1793.43"
         style="fill:#f2575d;fill-opacity:1;fill-rule:nonzero;stroke:none"
         id="path36" /><path
         d="M 2649.66,1911.45 C 2620.29,1887.95 752.254,5.39063 752.254,5.39063 H 1557.03 L 3025.62,1482.63 2649.66,1911.45"
         style="fill:#f2575d;fill-opacity:1;fill-rule:nonzero;stroke:none"
         id="path38" /><path
         d="m 998.477,4128.53 c 0,-70.88 -57.457,-128.33 -128.336,-128.33 -70.879,0 -128.336,57.45 -128.336,128.33 0,70.88 57.457,128.34 128.336,128.34 70.879,0 128.336,-57.46 128.336,-128.34"
         style="fill:#f2575d;fill-opacity:1;fill-rule:nonzero;stroke:none"
         id="path40" /><path
         d="m 851.859,3841.57 c -0.742,0 -1.347,23.7 -1.347,52.93 0,29.24 0.605,52.94 1.347,52.94 0.746,0 1.352,-23.7 1.352,-52.94 0,-29.23 -0.606,-52.93 -1.352,-52.93"
         style="fill:#f2575d;fill-opacity:1;fill-rule:nonzero;stroke:none"
         id="path42" /><path
         d="m 777.906,3977.28 c 0.649,-0.37 -11.422,-22.48 -26.957,-49.39 -15.535,-26.9 -28.656,-48.4 -29.301,-48.03 -0.644,0.37 11.422,22.48 26.965,49.39 15.532,26.89 28.645,48.4 29.293,48.03"
         style="fill:#f2575d;fill-opacity:1;fill-rule:nonzero;stroke:none"
         id="path44" /><path
         d="m 702.004,4024.54 c 0.465,-0.58 -12.953,-12.02 -29.969,-25.55 -17.023,-13.53 -31.191,-24.02 -31.656,-23.43 -0.465,0.58 12.953,12.02 29.976,25.55 17.012,13.52 31.188,24.01 31.649,23.43"
         style="fill:#f2575d;fill-opacity:1;fill-rule:nonzero;stroke:none"
         id="path46" /><path
         d="m 979.891,3893.72 c -0.387,-0.07 -1.539,4.94 -3.383,13.02 -1.848,8.08 -4.465,19.22 -7.738,31.42 -3.29,12.2 -6.61,23.14 -9.067,31.06 -2.453,7.91 -3.973,12.82 -3.605,12.96 0.332,0.12 2.484,-4.55 5.414,-12.34 2.929,-7.79 6.558,-18.71 9.863,-30.98 3.297,-12.27 5.629,-23.54 7.004,-31.75 1.375,-8.2 1.859,-13.34 1.512,-13.39"
         style="fill:#f2575d;fill-opacity:1;fill-rule:nonzero;stroke:none"
         id="path48" /><path
         d="m 1110.06,3986.09 c -0.49,-0.57 -17.48,13.48 -37.93,31.36 -20.47,17.88 -36.65,32.84 -36.16,33.39 0.49,0.57 17.47,-13.47 37.93,-31.36 20.46,-17.88 36.65,-32.84 36.16,-33.39"
         style="fill:#f2575d;fill-opacity:1;fill-rule:nonzero;stroke:none"
         id="path50" /><path
         d="m 1159.92,4113.02 c -0.09,-0.39 -5.98,0.64 -15.48,2.22 -9.51,1.59 -22.65,3.62 -37.25,5.3 -14.6,1.67 -27.87,2.66 -37.48,3.27 -9.62,0.62 -15.59,0.94 -15.58,1.34 0,0.35 5.98,0.7 15.65,0.57 9.67,-0.12 23.04,-0.82 37.72,-2.5 14.67,-1.68 27.85,-4.03 37.3,-6.1 9.45,-2.07 15.19,-3.76 15.12,-4.1"
         style="fill:#f2575d;fill-opacity:1;fill-rule:nonzero;stroke:none"
         id="path52" /><path
         d="m 1160.08,4237.84 c 0.17,-0.73 -27.61,-8.12 -62.05,-16.51 -34.46,-8.39 -62.52,-14.6 -62.7,-13.88 -0.18,0.73 27.6,8.12 62.06,16.51 34.44,8.39 62.51,14.61 62.69,13.88"
         style="fill:#f2575d;fill-opacity:1;fill-rule:nonzero;stroke:none"
         id="path54" /><path
         d="m 1015.06,4383.27 c 0.62,-0.41 -12.67,-21.62 -29.685,-47.36 -17.023,-25.75 -31.32,-46.28 -31.945,-45.87 -0.617,0.41 12.668,21.61 29.687,47.36 17.023,25.74 31.323,46.28 31.943,45.87"
         style="fill:#f2575d;fill-opacity:1;fill-rule:nonzero;stroke:none"
         id="path56" /><path
         d="m 871.141,4413.65 c 0.386,-0.02 0.343,-6.76 0.183,-17.62 -0.152,-10.87 -0.371,-25.87 -0.347,-42.44 0.015,-16.58 0.265,-31.59 0.449,-42.46 0.176,-10.86 0.23,-17.59 -0.153,-17.61 -0.355,-0.02 -1.089,6.68 -1.757,17.54 -0.676,10.87 -1.223,25.9 -1.246,42.52 -0.016,16.62 0.503,31.65 1.148,42.52 0.645,10.87 1.363,17.57 1.723,17.55"
         style="fill:#f2575d;fill-opacity:1;fill-rule:nonzero;stroke:none"
         id="path58" /><path
         d="m 762.152,4277.91 c -0.636,-0.39 -14.156,20.58 -30.191,46.82 -16.039,26.25 -28.523,47.84 -27.887,48.22 0.637,0.39 14.153,-20.56 30.192,-46.82 16.035,-26.24 28.527,-47.83 27.886,-48.22"
         style="fill:#f2575d;fill-opacity:1;fill-rule:nonzero;stroke:none"
         id="path60" /><path
         d="m 697.051,4222.58 c -0.078,-0.35 -5.305,0.41 -13.649,2.16 -8.343,1.76 -19.797,4.56 -32.277,8.23 -12.484,3.69 -23.621,7.55 -31.582,10.61 -7.965,3.05 -12.762,5.25 -12.637,5.58 0.133,0.37 5.168,-1.2 13.27,-3.78 8.097,-2.59 19.281,-6.15 31.711,-9.82 12.433,-3.66 23.758,-6.74 31.965,-8.96 8.203,-2.22 13.281,-3.65 13.199,-4.02"
         style="fill:#f2575d;fill-opacity:1;fill-rule:nonzero;stroke:none"
         id="path62" /><path
         d="m 668.605,4123.98 c 0.071,-0.74 -18.265,-3.12 -40.957,-5.29 -22.687,-2.19 -41.14,-3.35 -41.21,-2.61 -0.071,0.74 18.261,3.12 40.953,5.29 22.691,2.18 41.14,3.35 41.214,2.61"
         style="fill:#f2575d;fill-opacity:1;fill-rule:nonzero;stroke:none"
         id="path64" /><path
         d="m 4491.7,1303.53 c 5.24,38.01 -48.42,69.28 -88.73,72.53 -19.22,1.56 -39.19,-1.38 -57.4,4.97 -39.46,13.75 -55.23,64.73 -93.73,80.97 -28.79,12.14 -61.92,1.33 -89.83,-12.71 -27.92,-14.05 -55.49,-31.72 -86.67,-33.72 -27.11,-1.74 -56.57,8.32 -80.3,-4.93 -17.67,-9.87 -26.93,-30.24 -43.23,-42.26 -15.95,-11.76 -36.75,-14.25 -56.52,-15.32 -19.79,-1.09 -40.27,-1.28 -58.28,-9.53 -18.01,-8.25 -32.92,-27.3 -29.17,-46.75 l 683.86,6.75"
         style="fill:#ffffff;fill-opacity:1;fill-rule:nonzero;stroke:none"
         id="path66" /><path
         d="m 4491.7,1303.53 c 0.06,-0.06 -1.05,-0.14 -3.3,-0.23 -2.5,-0.07 -5.81,-0.16 -10.02,-0.28 -9.18,-0.18 -22.24,-0.44 -38.96,-0.76 -34.36,-0.53 -83.69,-1.28 -144.86,-2.21 -123.46,-1.49 -294.62,-3.55 -486.7,-5.86 l -2.15,-0.03 -0.42,2.13 c -2.24,11.34 1.82,23.36 8.95,32.45 7.09,9.21 17.35,16.12 28.44,19.85 25.62,8.72 52.05,5.03 76.31,9.55 12.13,2.12 23.87,6.25 33.12,13.75 9.36,7.48 16.33,17.69 24.74,26.84 4.22,4.56 8.78,8.99 14.16,12.41 5.37,3.41 11.33,5.85 17.43,7.2 12.28,2.63 24.5,1.75 36.2,0.87 11.72,-0.91 23.21,-2.08 34.34,-0.84 11.15,1.15 21.93,4.34 32.19,8.45 20.61,8.24 39.22,19.88 58.76,28.8 19.46,8.78 40.2,15.06 60.83,13.54 10.21,-0.85 20.19,-3.69 28.81,-8.65 8.64,-4.91 15.93,-11.39 22.42,-18.13 12.96,-13.55 23.16,-28.22 35.05,-40.05 11.63,-12 25.71,-20.48 40.62,-22.57 14.85,-2.37 29.35,-1.09 42.93,-2.07 27.39,-2.2 49.2,-13.09 64.61,-24.18 15.47,-11.45 23.7,-24.88 25.97,-34.74 2.23,-9.9 0.25,-15.53 0.53,-15.24 -0.46,0.21 0.89,5.33 -1.55,14.97 -2.54,9.52 -10.79,22.38 -26.14,33.38 -15.29,10.63 -36.96,21.05 -63.61,22.9 -13.31,0.85 -27.81,-0.6 -43.27,1.7 -15.6,2.02 -30.74,11.03 -42.68,23.24 -12.28,12.06 -22.6,26.73 -35.35,39.87 -6.36,6.53 -13.41,12.69 -21.57,17.28 -8.13,4.62 -17.45,7.22 -27.11,7.98 -19.46,1.37 -39.55,-4.69 -58.58,-13.4 -19.12,-8.78 -37.78,-20.56 -58.88,-29.09 -10.52,-4.24 -21.74,-7.61 -33.46,-8.85 -11.78,-1.34 -23.59,-0.13 -35.25,0.74 -11.63,0.87 -23.44,1.62 -34.71,-0.83 -11.35,-2.36 -21.03,-9.11 -28.93,-18.14 -8.1,-8.78 -15.15,-19.23 -25.27,-27.4 -10.13,-8.24 -22.84,-12.63 -35.43,-14.83 -25.32,-4.61 -51.54,-1.1 -75.51,-9.37 -10.38,-3.49 -19.56,-9.76 -26.05,-18.12 -6.45,-8.26 -9.85,-18.7 -7.97,-28.28 l -2.56,2.1 c 191.4,1.47 361.96,2.78 484.99,3.73 61.39,0.27 110.92,0.49 145.41,0.65 16.96,0.01 30.2,0.01 39.52,0.01 4.33,-0.04 7.75,-0.06 10.33,-0.09 2.35,-0.04 3.57,-0.09 3.63,-0.15"
         style="fill:#17282f;fill-opacity:1;fill-rule:nonzero;stroke:none"
         id="path68" /><path
         d="m 2343.23,466.539 c 6.95,50.492 -64.31,92.02 -117.85,96.34 -25.53,2.062 -52.06,-1.84 -76.25,6.582 -52.4,18.269 -73.34,85.98 -124.48,107.551 -38.24,16.129 -82.25,1.769 -119.31,-16.883 -37.07,-18.649 -73.7,-42.129 -115.11,-44.777 -36.02,-2.301 -75.13,11.046 -106.65,-6.543 -23.48,-13.118 -35.78,-40.18 -57.42,-56.137 -21.18,-15.621 -48.8,-18.934 -75.08,-20.363 -26.27,-1.418 -53.47,-1.68 -77.4,-12.641 -23.92,-10.957 -43.71,-36.25 -38.75,-62.09 l 908.3,8.961"
         style="fill:#ffffff;fill-opacity:1;fill-rule:nonzero;stroke:none"
         id="path70" /><path
         d="m 2343.23,466.539 c 0,0 -1.44,-0.141 -4.43,-0.23 -3.22,-0.079 -7.65,-0.188 -13.37,-0.321 -12.05,-0.207 -29.47,-0.508 -51.84,-0.886 -45.49,-0.641 -111.09,-1.551 -192.48,-2.692 -163.77,-1.871 -391.06,-4.488 -646.15,-7.43 l -2.15,-0.019 -0.42,2.129 c -2.91,14.781 2.37,30.48 11.72,42.41 9.33,12.09 22.76,21.168 37.39,26.09 33.76,11.488 68.83,6.629 101.22,12.648 16.18,2.821 31.95,8.352 44.37,18.453 12.55,10.028 21.83,23.637 32.94,35.727 5.57,6.043 11.58,11.863 18.64,16.352 7.05,4.468 14.86,7.679 22.89,9.449 16.13,3.472 32.3,2.312 47.83,1.152 15.55,-1.203 30.88,-2.769 45.76,-1.101 14.9,1.539 29.3,5.8 42.97,11.289 27.45,10.992 52.18,26.48 78.06,38.293 25.77,11.668 53.21,19.968 80.41,17.968 13.47,-1.109 26.63,-4.84 37.99,-11.39 11.4,-6.469 21.04,-15.02 29.64,-23.918 17.19,-17.942 30.74,-37.422 46.6,-53.172 15.51,-15.969 34.36,-27.332 54.29,-30.09 19.82,-3.129 39.09,-1.41 57.08,-2.699 18.1,-1.121 34.44,-5.891 48.75,-11.571 14.33,-5.781 26.66,-12.832 36.9,-20.332 10.2,-7.578 18.08,-15.82 23.85,-23.707 5.89,-7.882 8.87,-15.8 10.66,-22.211 1.4,-6.511 1.87,-11.64 1.36,-15.152 -0.27,-3.437 -0.48,-5.039 -0.48,-5.039 0,0 -0.05,1.891 -0.02,5.231 0.27,3.281 -0.33,8.339 -1.87,14.699 -3.33,12.703 -14.29,29.871 -34.7,44.551 -10.19,7.261 -22.43,14.089 -36.61,19.64 -14.17,5.481 -30.3,10.02 -48.02,10.988 -17.73,1.153 -36.99,-0.738 -57.43,2.332 -20.62,2.68 -40.53,14.571 -56.35,30.75 -16.24,15.981 -29.93,35.461 -46.89,52.981 -8.49,8.719 -17.88,16.937 -28.8,23.09 -10.88,6.199 -23.37,9.687 -36.28,10.707 -26.05,1.851 -52.82,-6.25 -78.18,-17.828 -25.46,-11.68 -50.23,-27.301 -78.17,-38.571 -13.93,-5.629 -28.76,-10.07 -44.25,-11.699 -15.53,-1.762 -31.16,-0.16 -46.66,0.988 -15.46,1.161 -31.21,2.18 -46.35,-1.109 -7.52,-1.668 -14.71,-4.648 -21.23,-8.777 -6.52,-4.16 -12.22,-9.684 -17.62,-15.532 -10.81,-11.73 -20.16,-25.589 -33.48,-36.3 -13.31,-10.828 -30.03,-16.621 -46.68,-19.539 -33.46,-6.11 -68.31,-1.411 -100.43,-12.473 -13.9,-4.68 -26.26,-13.109 -34.98,-24.348 -8.69,-11.109 -13.31,-25.23 -10.75,-38.25 l -2.57,2.102 c 254.42,2.098 481.11,3.957 644.44,5.297 81.63,0.48 147.42,0.871 193.04,1.133 22.61,0.058 40.21,0.109 52.4,0.136 5.84,-0.019 10.38,-0.039 13.68,-0.047 3.1,-0.043 4.76,-0.152 4.76,-0.152"
         style="fill:#17282f;fill-opacity:1;fill-rule:nonzero;stroke:none"
         id="path72" /><path
         d="m 1418.45,2851.39 c 5.83,42.38 -53.98,77.24 -98.92,80.86 -21.43,1.73 -43.69,-1.55 -63.99,5.53 -44,15.33 -61.57,72.17 -104.49,90.27 -32.09,13.53 -69.04,1.49 -100.15,-14.17 -31.11,-15.66 -61.853,-35.36 -96.611,-37.59 -30.234,-1.93 -63.066,9.28 -89.516,-5.49 -19.707,-11 -30.035,-33.72 -48.203,-47.12 -17.773,-13.11 -40.957,-15.88 -63.007,-17.08 -22.055,-1.2 -44.883,-1.42 -64.965,-10.62 -20.078,-9.19 -36.692,-30.43 -32.524,-52.11 l 762.376,7.52"
         style="fill:#ffffff;fill-opacity:1;fill-rule:nonzero;stroke:none"
         id="path74" /><path
         d="m 1418.45,2851.39 c 0.05,-0.07 -1.2,-0.14 -3.7,-0.23 -2.75,-0.07 -6.45,-0.17 -11.19,-0.3 -10.18,-0.19 -24.77,-0.46 -43.47,-0.81 -38.25,-0.56 -93.27,-1.37 -161.51,-2.37 -137.57,-1.62 -328.357,-3.88 -542.478,-6.41 l -2.153,-0.02 -0.426,2.13 c -2.468,12.54 2.016,25.85 9.922,35.93 7.875,10.21 19.239,17.89 31.575,22.04 28.464,9.68 57.918,5.58 85.023,10.63 13.543,2.37 26.699,6.98 37.059,15.4 10.464,8.36 18.253,19.76 27.601,29.94 4.692,5.08 9.758,10 15.727,13.79 5.961,3.78 12.566,6.49 19.34,7.98 13.628,2.93 27.23,1.95 40.273,0.97 13.055,-1.01 25.895,-2.32 38.336,-0.92 12.453,1.28 24.504,4.84 35.961,9.44 23,9.2 43.75,22.19 65.52,32.11 21.65,9.8 44.74,16.79 67.66,15.1 11.36,-0.94 22.45,-4.09 32.03,-9.61 9.6,-5.46 17.71,-12.66 24.94,-20.16 14.45,-15.08 25.81,-31.43 39.09,-44.63 13,-13.39 28.74,-22.89 45.41,-25.21 16.58,-2.63 32.76,-1.2 47.87,-2.29 30.5,-2.43 54.8,-14.54 71.98,-26.88 17.23,-12.74 26.41,-27.67 28.95,-38.65 1.17,-5.49 1.54,-9.79 1.1,-12.75 -0.25,-2.9 -0.44,-4.22 -0.44,-4.22 0,0 -0.06,1.61 -0.06,4.4 0.21,2.74 -0.31,6.97 -1.61,12.3 -2.82,10.64 -12.02,25 -29.14,37.28 -17.05,11.89 -41.21,23.54 -70.96,25.61 -14.85,0.96 -31.02,-0.64 -48.22,1.93 -17.36,2.25 -34.17,12.26 -47.47,25.87 -13.66,13.43 -25.16,29.77 -39.38,44.44 -7.11,7.31 -14.98,14.19 -24.1,19.32 -9.1,5.18 -19.52,8.09 -30.32,8.94 -21.77,1.54 -44.19,-5.24 -65.44,-14.96 -21.34,-9.79 -42.13,-22.91 -65.625,-32.39 -11.707,-4.74 -24.187,-8.48 -37.234,-9.86 -13.09,-1.48 -26.231,-0.13 -39.239,0.83 -12.972,0.97 -26.16,1.82 -38.781,-0.93 -12.715,-2.63 -23.582,-10.22 -32.402,-20.29 -9.047,-9.82 -16.903,-21.47 -28.149,-30.52 -11.242,-9.15 -25.347,-14.02 -39.367,-16.48 -28.156,-5.14 -57.398,-1.21 -84.223,-10.45 -11.609,-3.91 -21.902,-10.94 -29.171,-20.31 -7.235,-9.25 -11.063,-20.97 -8.938,-31.76 l -2.574,2.1 c 213.453,1.69 403.643,3.19 540.773,4.28 68.48,0.34 123.7,0.63 162.07,0.82 18.94,0.02 33.71,0.04 44.02,0.06 4.87,-0.04 8.69,-0.06 11.51,-0.08 2.61,-0.04 3.97,-0.09 4.03,-0.15"
         style="fill:#17282f;fill-opacity:1;fill-rule:nonzero;stroke:none"
         id="path76" /><path
         d="m 4144.62,3955.31 c 4.59,33.32 -42.42,60.72 -77.75,63.57 -16.85,1.35 -34.35,-1.22 -50.31,4.34 -34.57,12.05 -48.39,56.73 -82.13,70.96 -25.23,10.64 -54.27,1.17 -78.72,-11.14 -24.46,-12.31 -48.63,-27.79 -75.95,-29.54 -23.77,-1.53 -49.57,7.29 -70.36,-4.32 -15.5,-8.65 -23.62,-26.51 -37.9,-37.04 -13.97,-10.3 -32.19,-12.49 -49.52,-13.43 -17.35,-0.94 -35.29,-1.12 -51.08,-8.34 -15.78,-7.23 -28.84,-23.92 -25.56,-40.97 l 599.28,5.91"
         style="fill:#ffffff;fill-opacity:1;fill-rule:nonzero;stroke:none"
         id="path78" /><path
         d="m 4144.62,3955.31 c 0.06,-0.06 -0.92,-0.13 -2.87,-0.22 -2.23,-0.07 -5.12,-0.16 -8.76,-0.27 -8.11,-0.17 -19.53,-0.41 -34.11,-0.72 -30.18,-0.48 -73.38,-1.17 -126.9,-2.03 -108.3,-1.34 -258.29,-3.19 -426.62,-5.26 l -2.14,-0.03 -0.43,2.13 c -1.99,10.05 1.62,20.68 7.91,28.69 6.25,8.12 15.3,14.23 25.06,17.51 22.56,7.66 45.74,4.42 66.93,8.38 10.59,1.85 20.83,5.45 28.89,11.98 8.14,6.5 14.25,15.44 21.64,23.48 7.12,8.21 16.93,15.1 27.85,17.28 10.81,2.32 21.55,1.53 31.81,0.76 10.27,-0.8 20.33,-1.82 30.03,-0.74 9.74,1 19.16,3.78 28.14,7.38 18.03,7.2 34.33,17.4 51.49,25.21 17.06,7.72 35.29,13.23 53.43,11.88 8.98,-0.74 17.77,-3.25 25.36,-7.62 7.6,-4.33 14,-10.02 19.7,-15.94 11.38,-11.89 20.29,-24.75 30.69,-35.1 10.18,-10.5 22.44,-17.92 35.47,-19.74 12.98,-2.08 25.69,-0.97 37.6,-1.85 24.05,-1.94 43.16,-11.51 56.69,-21.26 13.55,-10.07 20.77,-21.86 22.73,-30.53 1.96,-8.69 0.18,-13.64 0.41,-13.37 -0.41,0.22 0.73,4.67 -1.41,13.1 -2.25,8.33 -9.49,19.56 -22.93,29.16 -13.38,9.3 -32.37,18.41 -55.67,20 -11.65,0.73 -24.36,-0.54 -37.95,1.47 -13.72,1.76 -27.05,9.69 -37.53,20.41 -10.78,10.58 -19.84,23.43 -30.99,34.92 -5.58,5.72 -11.73,11.09 -18.85,15.09 -7.1,4.04 -15.22,6.29 -23.65,6.96 -16.99,1.19 -34.54,-4.12 -51.2,-11.74 -16.73,-7.69 -33.09,-18.02 -51.6,-25.5 -9.23,-3.74 -19.1,-6.7 -29.41,-7.79 -10.36,-1.18 -20.72,-0.12 -30.94,0.64 -10.19,0.76 -20.5,1.41 -30.33,-0.73 -9.88,-2.05 -18.27,-7.91 -25.18,-15.79 -7.08,-7.68 -13.27,-16.86 -22.18,-24.05 -8.94,-7.26 -20.13,-11.13 -31.19,-13.07 -22.26,-4.05 -45.22,-0.98 -66.13,-8.2 -9.05,-3.05 -17.03,-8.5 -22.67,-15.78 -5.62,-7.18 -8.56,-16.23 -6.93,-24.52 l -2.56,2.1 c 167.65,1.24 317.05,2.34 424.9,3.14 53.76,0.2 97.16,0.36 127.46,0.48 14.81,-0.02 26.42,-0.03 34.67,-0.04 3.77,-0.04 6.75,-0.07 9.07,-0.1 2.07,-0.04 3.14,-0.09 3.2,-0.16"
         style="fill:#17282f;fill-opacity:1;fill-rule:nonzero;stroke:none"
         id="path80" /><path
         d="m 2401.16,2197.62 -7.19,-164.46 c 0,0 164.74,-62.53 166.37,-93.05 l -319.36,2.48 0.69,256.71 159.49,-1.68"
         style="fill:#33535f;fill-opacity:1;fill-rule:nonzero;stroke:none"
         id="path82" /><path
         d="m 2295.33,2047.77 c -6.2,-1.64 -10.52,-8.56 -9.14,-14.81 1.39,-6.26 8.38,-10.71 14.6,-9.18 6.22,1.52 11.67,9.67 9.59,15.73 -2.07,6.07 -10.57,10.85 -16.25,7.87"
         style="fill:#dadbd8;fill-opacity:1;fill-rule:nonzero;stroke:none"
         id="path84" /><path
         d="m 2560.4,1940.48 h -0.08 c -0.42,4.32 -4.02,9.27 -9.92,14.58 3.93,-2.31 10.93,-7.49 10,-14.58"
         style="fill:#ffffff;fill-opacity:1;fill-rule:nonzero;stroke:none"
         id="path86" /><path
         d="m 2560.34,1940.11 -47.87,0.37 47.87,-0.37 v 0 c 0,0.12 -0.01,0.25 -0.02,0.37 h 0.08 c -0.02,-0.12 -0.03,-0.25 -0.06,-0.37"
         style="fill:#f9acb4;fill-opacity:1;fill-rule:nonzero;stroke:none"
         id="path88" /><path
         d="m 2560.34,1940.11 -47.87,0.37 -271.49,2.11 1.08,25.88 305.8,-12.06 c 0,0 1.05,-0.47 2.54,-1.35 5.9,-5.31 9.5,-10.26 9.92,-14.58 0.01,-0.12 0.02,-0.25 0.02,-0.37"
         style="fill:#a6b7b9;fill-opacity:1;fill-rule:nonzero;stroke:none"
         id="path90" /><path
         d="m 2399.16,2034.75 c -0.06,-1.56 -7.87,-2.21 -15.58,-7.16 -7.84,-4.76 -11.85,-11.48 -13.28,-10.85 -1.43,0.31 0.96,9.62 10.41,15.46 9.39,5.92 18.8,3.98 18.45,2.55"
         style="fill:#17282f;fill-opacity:1;fill-rule:nonzero;stroke:none"
         id="path92" /><path
         d="m 2432.55,2020.64 c 0.34,-1.52 -6.43,-4.12 -11.78,-10.68 -5.54,-6.39 -6.93,-13.51 -8.48,-13.44 -1.47,-0.23 -2.48,8.92 4.32,16.94 6.74,8.08 15.92,8.66 15.94,7.18"
         style="fill:#17282f;fill-opacity:1;fill-rule:nonzero;stroke:none"
         id="path94" /><path
         d="m 2451.26,1980.39 c -1.41,-0.32 -3.52,7.49 0.54,16 4.01,8.54 11.4,11.85 12.05,10.54 0.87,-1.28 -3.91,-5.83 -7.14,-12.87 -3.4,-6.95 -3.89,-13.52 -5.45,-13.67"
         style="fill:#17282f;fill-opacity:1;fill-rule:nonzero;stroke:none"
         id="path96" /><path
         d="m 2396.64,2072.41 c -0.67,-1.41 -7.8,0.79 -16.62,0.26 -8.83,-0.35 -15.72,-3.26 -16.52,-1.91 -0.89,1.14 5.85,6.86 16.25,7.34 10.39,0.55 17.67,-4.47 16.89,-5.69"
         style="fill:#17282f;fill-opacity:1;fill-rule:nonzero;stroke:none"
         id="path98" /><path
         d="m 2897.39,2197.62 -7.19,-164.46 c 0,0 164.74,-62.53 166.38,-93.05 l -319.38,2.48 0.69,256.71 159.5,-1.68"
         style="fill:#33535f;fill-opacity:1;fill-rule:nonzero;stroke:none"
         id="path100" /><path
         d="m 2791.55,2047.77 c -6.2,-1.64 -10.52,-8.56 -9.13,-14.81 1.38,-6.26 8.37,-10.71 14.59,-9.18 6.23,1.52 11.67,9.67 9.59,15.73 -2.07,6.07 -10.57,10.85 -16.25,7.87"
         style="fill:#dadbd8;fill-opacity:1;fill-rule:nonzero;stroke:none"
         id="path102" /><path
         d="m 3056.63,1940.48 h -0.08 c -0.42,4.32 -4.01,9.26 -9.9,14.57 3.93,-2.33 10.9,-7.5 9.98,-14.57"
         style="fill:#ffffff;fill-opacity:1;fill-rule:nonzero;stroke:none"
         id="path104" /><path
         d="m 3056.58,1940.11 -47.88,0.37 47.88,-0.37 v 0 c -0.01,0.12 -0.02,0.25 -0.03,0.37 h 0.08 c -0.02,-0.12 -0.03,-0.25 -0.05,-0.37"
         style="fill:#f9acb4;fill-opacity:1;fill-rule:nonzero;stroke:none"
         id="path106" /><path
         d="m 3056.58,1940.11 -47.88,0.37 -271.5,2.11 1.08,25.88 305.81,-12.06 c 0,0 1.06,-0.47 2.56,-1.36 5.89,-5.31 9.48,-10.25 9.9,-14.57 0.01,-0.12 0.02,-0.25 0.03,-0.37"
         style="fill:#a6b7b9;fill-opacity:1;fill-rule:nonzero;stroke:none"
         id="path108" /><path
         d="m 2895.38,2034.75 c -0.05,-1.56 -7.87,-2.21 -15.57,-7.16 -7.84,-4.76 -11.86,-11.48 -13.28,-10.85 -1.44,0.31 0.95,9.62 10.4,15.46 9.39,5.92 18.81,3.98 18.45,2.55"
         style="fill:#17282f;fill-opacity:1;fill-rule:nonzero;stroke:none"
         id="path110" /><path
         d="m 2928.77,2020.64 c 0.35,-1.52 -6.42,-4.12 -11.77,-10.68 -5.54,-6.39 -6.94,-13.51 -8.49,-13.44 -1.47,-0.23 -2.47,8.92 4.33,16.94 6.73,8.08 15.91,8.66 15.93,7.18"
         style="fill:#17282f;fill-opacity:1;fill-rule:nonzero;stroke:none"
         id="path112" /><path
         d="m 2947.48,1980.39 c -1.41,-0.32 -3.52,7.49 0.55,16 4.01,8.54 11.39,11.85 12.04,10.54 0.87,-1.28 -3.9,-5.83 -7.14,-12.87 -3.4,-6.95 -3.89,-13.52 -5.45,-13.67"
         style="fill:#17282f;fill-opacity:1;fill-rule:nonzero;stroke:none"
         id="path114" /><path
         d="m 2892.86,2072.41 c -0.66,-1.41 -7.8,0.79 -16.62,0.26 -8.82,-0.35 -15.71,-3.26 -16.51,-1.91 -0.9,1.14 5.85,6.86 16.24,7.34 10.39,0.55 17.67,-4.47 16.89,-5.69"
         style="fill:#17282f;fill-opacity:1;fill-rule:nonzero;stroke:none"
         id="path116" /><path
         d="m 2242.5,4357.09 c -11.24,30.76 -22.36,61.74 -28.14,93.96 -5.78,32.23 -6.02,66.03 4.28,97.11 1.55,4.71 15.16,36.43 20.11,36.12 3.54,-0.22 -4.48,-29.64 -2.58,-32.64 18.07,-28.62 23.97,-63.61 22.47,-97.43 -1.5,-33.82 -7.42,-64.41 -16.14,-97.12"
         style="fill:#17282f;fill-opacity:1;fill-rule:nonzero;stroke:none"
         id="path118" /><path
         d="m 2253.02,4182.75 -11.96,297.11 c -5.62,81.91 31.06,155.41 113.09,158.77 l 8.91,-0.16 c 75.75,-1.32 137.78,-60.57 142.57,-136.17 4.51,-71.36 8.61,-150.62 7.47,-188.89 -2.34,-78.75 -81.34,-89.63 -81.34,-89.63 -0.18,-0.01 3.37,-57.08 3.96,-80.2 0,0 -8.34,-6.06 -81.7,-8.67 -73.4,-2.6 -101,47.84 -101,47.84"
         style="fill:#f9a78d;fill-opacity:1;fill-rule:nonzero;stroke:none"
         id="path120" /><path
         d="m 2431.76,4223.78 c 0,0 -49.71,-2.05 -102.04,32.11 0,0 24.01,-57.73 102.73,-52 l -0.69,19.89"
         style="fill:#f57f62;fill-opacity:1;fill-rule:nonzero;stroke:none"
         id="path122" /><path
         d="m 2478.58,4430.77 c 0.11,-5.94 -4.84,-10.93 -11.05,-11.16 -6.19,-0.22 -11.31,4.4 -11.41,10.35 -0.11,5.94 4.83,10.94 11.03,11.17 6.2,0.22 11.33,-4.42 11.43,-10.36"
         style="fill:#17282f;fill-opacity:1;fill-rule:nonzero;stroke:none"
         id="path124" /><path
         d="m 2485.76,4458.88 c -1.43,-1.44 -9.84,5.01 -21.95,5.19 -12.09,0.36 -21.08,-5.72 -22.37,-4.21 -0.63,0.66 0.84,3.28 4.75,6.03 3.86,2.74 10.41,5.36 17.94,5.2 7.54,-0.18 13.83,-3.07 17.44,-5.97 3.67,-2.92 4.88,-5.6 4.19,-6.24"
         style="fill:#17282f;fill-opacity:1;fill-rule:nonzero;stroke:none"
         id="path126" /><path
         d="m 2375.11,4428.92 c -1.42,-1.44 -9.84,5.01 -21.94,5.19 -12.09,0.35 -21.08,-5.72 -22.37,-4.22 -0.63,0.67 0.82,3.29 4.75,6.04 3.86,2.74 10.4,5.36 17.94,5.2 7.54,-0.18 13.83,-3.07 17.43,-5.97 3.66,-2.92 4.88,-5.59 4.19,-6.24"
         style="fill:#17282f;fill-opacity:1;fill-rule:nonzero;stroke:none"
         id="path128" /><path
         d="m 2411.97,4363.5 c -0.05,0.69 7.5,1.86 19.72,3.2 3.09,0.27 6.03,0.84 6.58,2.94 0.77,2.22 -0.46,5.57 -1.89,9.19 -2.78,7.53 -5.69,15.43 -8.74,23.7 -12.11,33.74 -20.82,61.45 -19.45,61.93 1.36,0.47 12.28,-26.49 24.39,-60.22 2.91,-8.31 5.69,-16.24 8.35,-23.83 1.1,-3.53 3.05,-7.55 1.39,-12.16 -0.88,-2.29 -3.18,-3.93 -5.16,-4.43 -2,-0.57 -3.74,-0.57 -5.27,-0.64 -12.28,-0.44 -19.89,-0.37 -19.92,0.32"
         style="fill:#17282f;fill-opacity:1;fill-rule:nonzero;stroke:none"
         id="path130" /><path
         d="m 2375.67,4461.16 c -1.48,-3.18 -13.38,-0.53 -27.68,-0.96 -14.31,-0.15 -26.09,-3.25 -27.7,-0.15 -0.72,1.49 1.55,4.39 6.45,7.15 4.86,2.75 12.42,5.11 21,5.28 8.58,0.17 16.23,-1.88 21.19,-4.44 5.01,-2.56 7.39,-5.37 6.74,-6.88"
         style="fill:#17282f;fill-opacity:1;fill-rule:nonzero;stroke:none"
         id="path132" /><path
         d="m 2490.51,4504.18 c -1.83,-3.22 -11.92,-2.49 -23.34,-4.83 -11.49,-2 -20.65,-6.38 -23.48,-4.05 -1.27,1.16 -0.34,4.17 3.32,7.63 3.61,3.44 10.11,7.02 17.98,8.52 7.87,1.48 15.19,0.52 19.75,-1.37 4.63,-1.88 6.55,-4.37 5.77,-5.9"
         style="fill:#17282f;fill-opacity:1;fill-rule:nonzero;stroke:none"
         id="path134" /><path
         d="m 2246.45,4421.99 c -1.33,0.61 -53.84,16.96 -53.06,-36.93 0.78,-53.88 54.72,-41.98 54.79,-40.43 0.07,1.54 -1.73,77.36 -1.73,77.36"
         style="fill:#f9a78d;fill-opacity:1;fill-rule:nonzero;stroke:none"
         id="path136" /><path
         d="m 2230.53,4364.59 c -0.24,0.16 -0.94,-0.68 -2.51,-1.43 -1.54,-0.73 -4.19,-1.25 -7.02,-0.25 -5.72,2.01 -10.64,10.98 -11.05,20.69 -0.21,4.9 0.76,9.58 2.44,13.47 1.59,3.97 4.09,6.76 6.95,7.32 2.85,0.69 4.9,-0.99 5.58,-2.5 0.75,-1.5 0.42,-2.58 0.71,-2.67 0.15,-0.13 1.14,0.93 0.67,3.14 -0.24,1.07 -0.89,2.33 -2.17,3.35 -1.3,1.03 -3.21,1.54 -5.21,1.3 -4.15,-0.35 -7.83,-4.22 -9.68,-8.5 -2.08,-4.3 -3.27,-9.56 -3.04,-15.07 0.5,-10.85 6.21,-20.92 14.03,-23.06 3.81,-0.94 6.95,0.25 8.57,1.55 1.65,1.35 1.91,2.56 1.73,2.66"
         style="fill:#f57f62;fill-opacity:1;fill-rule:nonzero;stroke:none"
         id="path138" /><path
         d="m 2468.77,4589.45 c 8.61,5.01 -18.22,32.63 -39.87,41.85 -32.73,13.94 -82.39,21.84 -112.05,12.67 -35.71,-11.03 -65.16,-29.61 -82.44,-62.76 -17.29,-33.13 -23.19,-71.41 -21.26,-108.74 0.58,-11.39 2.04,-23.24 8.35,-32.74 7.8,-11.73 22.42,-18.9 22.17,-35.34 -0.09,-6.01 1.76,-12.03 5.98,-16.32 10.1,-10.26 21.93,-0.12 27.24,9.88 11.35,21.38 12.08,46.6 12.56,70.81 0.34,17.19 0.63,34.76 -4.6,51.15 -2.84,8.92 -7.28,17.31 -9.63,26.37 -2.34,9.06 -2.31,19.41 3.2,26.98 0.89,1.23 2.38,2.79 4.27,4.53 14.94,13.73 36.21,18.23 55.49,11.91 30.59,-10.02 82.77,-24.84 96.06,-14.23 19.12,15.26 23.56,25.03 23.56,25.03 l 10.97,-11.05"
         style="fill:#17282f;fill-opacity:1;fill-rule:nonzero;stroke:none"
         id="path140" /><path
         d="m 2419.8,4330.76 c 0.21,-0.87 -2.75,-2.62 -8.16,-3.3 -5.35,-0.7 -13.11,0.11 -20.67,3.69 -7.56,3.61 -13.08,9.12 -15.91,13.72 -2.89,4.62 -3.4,8.02 -2.6,8.4 1.81,0.94 8.34,-9.67 21.55,-15.73 13.02,-6.42 25.38,-4.79 25.79,-6.78"
         style="fill:#17282f;fill-opacity:1;fill-rule:nonzero;stroke:none"
         id="path142" /><path
         d="m 3169.87,4461.87 c 0,0 -2.07,12.59 -8.3,12.59 -6.23,0 -15.56,-3.4 -19.71,-12.59 -4.15,-9.19 28.01,0 28.01,0"
         style="fill:#f9a78d;fill-opacity:1;fill-rule:nonzero;stroke:none"
         id="path144" /><path
         d="m 3011.26,4261.42 6.22,99.32 19.71,102.26 c 0,0 15.57,16.64 23.86,12.77 8.3,-3.86 5.19,-17.53 5.19,-17.53 0,0 21.78,23.53 30.08,18.11 8.29,-5.41 5.19,-18.11 5.19,-18.11 0,0 19.7,26.12 29.04,18.92 9.34,-7.19 0,-18.92 0,-18.92 0,0 12.36,-114.58 6.13,-155.51 -6.22,-40.93 -41.08,-56.13 -41.08,-56.13 l -16.56,-64.44 -81.26,44.23 13.48,35.03"
         style="fill:#f9a78d;fill-opacity:1;fill-rule:nonzero;stroke:none"
         id="path146" /><path
         d="m 3061.01,4391.36 -441.41,4.9 v 35.32 l 441.41,12.38 v -52.6"
         style="fill:#f2575d;fill-opacity:1;fill-rule:nonzero;stroke:none"
         id="path148" /><path
         d="m 3527.11,4356.36 -623.71,26.35 c -7.79,21.19 -8.09,44.13 -0.47,68.93 l 619.79,27.32 c 28.54,-29.64 28.86,-92.09 4.39,-122.6"
         style="fill:#f2575d;fill-opacity:1;fill-rule:nonzero;stroke:none"
         id="path150" /><path
         d="m 3521.02,4473.26 c 0,0 -18.8,-17.6 -18.07,-55.9 0.73,-38.31 19.6,-54.41 19.6,-54.41 0,0 20.46,21.62 17.49,60.01 -2.91,37.53 -19.02,50.3 -19.02,50.3"
         style="fill:#dadbd8;fill-opacity:1;fill-rule:nonzero;stroke:none"
         id="path152" /><path
         d="m 3496.09,4356.36 c -0.45,-0.39 -5.94,4.75 -12.12,15.14 -6.13,10.25 -12.64,26.45 -12.3,45.27 0.29,18.43 4.97,35.01 10.94,45.57 5.86,10.68 11.76,15.57 12.14,15.17 0.67,-0.56 -4.09,-6.21 -8.84,-16.8 -4.86,-10.51 -8.74,-26.28 -9.03,-44.05 -0.33,-17.57 5.22,-33.05 10.33,-43.42 5.14,-10.47 9.54,-16.37 8.88,-16.88"
         style="fill:#17282f;fill-opacity:1;fill-rule:nonzero;stroke:none"
         id="path154" /><path
         d="m 3523.88,4477.56 c 0.67,-0.53 -3.9,-6.37 -8.87,-16.99 -4.98,-10.52 -9.92,-26.25 -9.5,-44 0.29,-17.78 5.82,-33.31 11.16,-43.64 4.95,-10.84 11.3,-14.5 11.08,-15.05 -0.11,-0.29 -2.1,0.05 -4.95,2.1 -2.88,2.03 -6.21,5.95 -9.33,11.14 -6.41,10.25 -12.86,26.52 -13.16,45.34 -0.45,18.82 5.4,35.33 11.43,45.8 6.04,10.61 11.72,15.69 12.14,15.3"
         style="fill:#17282f;fill-opacity:1;fill-rule:nonzero;stroke:none"
         id="path156" /><path
         d="m 3532.01,4445.55 c -0.81,1.99 -1.77,3.98 -3.32,5.48 -1.54,1.49 -3.76,2.44 -5.85,1.99 -2.09,-0.44 -3.75,-2.23 -4.34,-4.28 -0.6,-2.05 -0.24,-4.29 0.67,-6.22 2.26,-4.52 5.96,-8.71 5.84,-13.21 -0.12,-4.5 -1.27,-8.98 -0.9,-13.47 0.14,-1.64 0.51,-3.32 1.46,-4.67 0.95,-1.35 2.59,-2.3 4.22,-2.08 2.66,0.37 3.99,3.39 4.61,6.01 2.36,10.08 1.52,20.87 -2.39,30.45"
         style="fill:#ffffff;fill-opacity:1;fill-rule:nonzero;stroke:none"
         id="path158" /><path
         d="m 2903.29,4380.48 c -1.14,-0.65 -8.96,14.89 -8.51,35.82 0.26,20.94 8.61,36.21 9.73,35.51 1.46,-0.56 -4.32,-15.88 -4.53,-35.6 -0.46,-19.71 4.8,-35.21 3.31,-35.73"
         style="fill:#17282f;fill-opacity:1;fill-rule:nonzero;stroke:none"
         id="path160" /><path
         d="m 2618.69,4387.89 v 0 c -3.72,0 -6.73,3.01 -6.73,6.74 v 37.35 c 0,3.72 3.01,6.74 6.73,6.74 3.73,0 6.74,-3.02 6.74,-6.74 v -37.35 c 0,-3.73 -3.01,-6.74 -6.74,-6.74"
         style="fill:#f2575d;fill-opacity:1;fill-rule:nonzero;stroke:none"
         id="path162" /><path
         d="m 2618.69,4387.89 c -0.04,0.43 1.78,0.46 3.62,2.3 0.86,0.9 1.65,2.3 1.64,3.97 -0.12,2.32 -0.24,4.66 -0.36,7.02 -0.18,6.05 -0.36,12.22 -0.56,18.61 -0.05,3.6 -0.1,7.25 -0.15,10.98 0.35,3.3 -1.59,5.2 -4.19,5.34 -2.59,-0.14 -4.54,-2.03 -4.18,-5.34 -0.05,-3.73 -0.11,-7.38 -0.16,-10.98 -0.19,-6.39 -0.37,-12.56 -0.56,-18.61 -0.11,-2.37 -0.24,-4.7 -0.36,-7.02 0,-1.67 0.78,-3.07 1.65,-3.98 1.84,-1.83 3.66,-1.86 3.61,-2.29 0.09,-0.23 -1.89,-1.13 -4.89,0.72 -1.39,0.94 -2.91,2.73 -3.27,5.3 -0.14,2.41 -0.27,4.82 -0.42,7.27 -0.18,6.05 -0.36,12.22 -0.56,18.61 -0.04,3.6 -0.09,7.25 -0.15,10.98 -0.19,1.68 0.26,5.18 2.06,7.1 1.7,2.12 4.43,3.47 7.23,3.45 2.81,0.01 5.54,-1.34 7.24,-3.45 1.79,-1.92 2.25,-5.42 2.05,-7.1 -0.05,-3.73 -0.1,-7.38 -0.14,-10.98 -0.2,-6.39 -0.39,-12.56 -0.57,-18.61 -0.14,-2.45 -0.27,-4.86 -0.42,-7.27 -0.36,-2.57 -1.87,-4.36 -3.26,-5.3 -3,-1.85 -4.99,-0.95 -4.9,-0.72"
         style="fill:#17282f;fill-opacity:1;fill-rule:nonzero;stroke:none"
         id="path164" /><path
         d="m 2695.34,4313.93 c 0,0 -9.39,115.91 -6.61,126.07 3.2,11.64 34.79,45.96 45.96,47.2 11.18,1.24 12.42,-11.18 12.42,-11.18 0,0 15.73,10.8 31.06,11.27 16.31,0.5 18.42,-13.86 18.42,-13.86 0,0 9.11,6.7 24.72,3.89 6.58,-1.18 14.13,-12.87 14.13,-12.87 0,0 16.38,7.07 24.17,-0.24 9.82,-9.19 9.68,-25.62 9.68,-25.62 -15.2,1.12 -28.98,-9.23 -28.98,-9.23 0,0 -3.76,-50.22 -9.97,-75.06 -6.22,-24.85 -30.78,-45.36 -39.04,-58.23 l -6.52,-85.71 -105.5,55.87 16.06,47.7"
         style="fill:#f9a78d;fill-opacity:1;fill-rule:nonzero;stroke:none"
         id="path166" /><path
         d="m 2719.09,4431.28 c -1.35,-0.2 -1.78,15.22 8.73,30.05 10.34,14.96 24.98,19.82 25.25,18.49 0.72,-1.37 -11.63,-7.84 -20.99,-21.48 -9.61,-13.45 -11.45,-27.27 -12.99,-27.06"
         style="fill:#f57f62;fill-opacity:1;fill-rule:nonzero;stroke:none"
         id="path168" /><path
         d="m 2770.69,4433.28 c -1.21,-0.47 -4.24,13.33 4.36,27.5 4.21,6.92 10.49,11.48 15.48,13.17 5.01,1.77 8.32,1.36 8.39,0.76 0.39,-1.45 -12.13,-4.01 -19.44,-16.68 -7.56,-12.21 -7.19,-24.78 -8.79,-24.75"
         style="fill:#f57f62;fill-opacity:1;fill-rule:nonzero;stroke:none"
         id="path170" /><path
         d="m 2808.45,4437.14 c -1.35,0.24 0.92,11.26 10.78,20.16 9.79,8.98 20.97,10.19 21.08,8.83 0.4,-1.48 -8.96,-4.7 -17.57,-12.69 -8.77,-7.82 -12.86,-16.82 -14.29,-16.3"
         style="fill:#f57f62;fill-opacity:1;fill-rule:nonzero;stroke:none"
         id="path172" /><path
         d="m 3078.25,4285.39 c 17.63,20.74 4.18,76.36 4.18,76.36 0,0 24.91,8.29 31.13,33.19 6.22,24.9 -6.22,29.04 -6.22,29.04 -4.15,-2.07 -42.53,-26.96 -62.24,-37.34 -19.71,-10.37 -25.94,-116 -25.94,-116"
         style="fill:#f9a78d;fill-opacity:1;fill-rule:nonzero;stroke:none"
         id="path174" /><path
         d="m 3019.16,4270.64 c -0.35,0.02 -0.41,4.95 0.02,13.85 0.46,8.9 1.37,21.76 3.32,37.58 2.28,15.77 4.27,34.77 12.36,54.95 1.18,2.48 2.36,5.01 4.23,7.39 1.59,2.39 4.92,4.66 7.1,5.65 4.78,2.63 9.61,5.44 14.51,8.37 9.73,5.98 19.79,12.16 30.1,18.5 5.19,3.18 9.95,6.29 15.37,9.37 l 1.01,0.57 0.98,-0.43 c 4.76,-2.1 6.94,-5.91 8.31,-9.73 1.3,-3.86 1.47,-7.75 1.27,-11.44 -0.54,-7.34 -2.18,-14.37 -5.48,-20.67 -6.66,-12.56 -17.78,-20.66 -29.13,-24.91 l 1.41,2.57 c 4.93,-23.49 5.45,-43.58 2.85,-57.34 -1.18,-6.9 -3.64,-11.96 -5.44,-15.2 -2.19,-3.06 -3.56,-4.47 -3.7,-4.33 -0.2,0.16 0.82,1.85 2.54,4.96 1.38,3.33 3.35,8.24 4.13,14.98 1.81,13.34 0.66,33.12 -4.58,55.9 l -0.43,1.85 1.84,0.72 c 10.07,3.98 20.46,11.82 26.14,23.03 2.87,5.51 4.34,12.12 4.78,18.7 0.58,6.31 -1.46,13.83 -6.15,15.99 l 1.97,0.14 c -4.68,-2.68 -9.89,-6.04 -14.93,-9.15 -10.3,-6.42 -20.38,-12.65 -30.27,-18.47 -4.94,-2.91 -9.83,-5.72 -14.72,-8.35 -2.79,-1.37 -4.03,-2.27 -5.61,-4.28 -1.5,-1.84 -2.64,-4.15 -3.74,-6.39 -7.86,-18.83 -10.41,-37.97 -13.06,-53.46 -2.42,-15.66 -3.88,-28.42 -4.96,-37.24 -1.05,-8.82 -1.68,-13.7 -2.04,-13.68"
         style="fill:#f57f62;fill-opacity:1;fill-rule:nonzero;stroke:none"
         id="path176" /><path
         d="m 2253.32,3358.57 c 0,0 12.27,-503.31 0,-564.68 -12.28,-61.38 -32.74,-315.08 -32.74,-503.31 0,-188.23 7.9,-231.13 7.9,-231.13 h 182.73 c 0,0 12.62,357.89 69.03,564.89 52.39,192.28 112.71,484.63 112.71,611.48 0,126.85 0,171.86 0,171.86 h -323.26 l -16.37,-49.11"
         style="fill:#17282f;fill-opacity:1;fill-rule:nonzero;stroke:none"
         id="path178" /><path
         d="m 2695.25,3407.68 c 0,0 191.7,-531.95 203.97,-687.45 12.28,-155.49 12.9,-660.78 12.9,-660.78 h -189.21 l -25.27,610.31 -145.62,395.42 v 342.5 h 143.23"
         style="fill:#17282f;fill-opacity:1;fill-rule:nonzero;stroke:none"
         id="path180" /><path
         d="m 2592.95,3121.25 c 0.34,-0.09 -0.51,-5.25 -2.34,-14.49 -1.98,-10.22 -4.53,-23.39 -7.6,-39.2 -6.52,-34.06 -15.2,-79.35 -24.78,-129.41 -9.79,-50.53 -18.98,-96.23 -26.3,-129.18 -3.66,-16.47 -6.85,-29.75 -9.23,-38.89 -2.45,-9.13 -3.97,-14.12 -4.32,-14.04 -0.35,0.09 0.5,5.24 2.35,14.49 1.97,10.21 4.53,23.38 7.59,39.19 6.53,34.07 15.2,79.35 24.79,129.43 9.78,50.52 18.96,96.21 26.29,129.16 3.66,16.47 6.84,29.76 9.23,38.9 2.45,9.12 3.97,14.12 4.32,14.04"
         style="fill:#33535f;fill-opacity:1;fill-rule:nonzero;stroke:none"
         id="path182" /><path
         d="m 2767.84,3172.78 h 40.53 c 0,0 9.29,140.33 -14.14,234.9 -23.44,94.56 -142.97,506.42 -142.97,506.42 l -132.42,218.84 -70.97,31.87 233.24,-781.88 86.73,-210.15"
         style="fill:#33535f;fill-opacity:1;fill-rule:nonzero;stroke:none"
         id="path184" /><path
         d="m 2794.11,3172.78 h -26.27 l -88.39,232.85 15.8,2.05 15.53,19.49 c 11.08,13.88 3.73,69.37 -2.45,86.01 l -113.88,323.77 c 12.26,6.75 25.91,15.16 25.91,15.16 0,0 122.62,-363.28 142.92,-458.53 20.3,-95.24 30.83,-220.8 30.83,-220.8"
         style="fill:#20353d;fill-opacity:1;fill-rule:nonzero;stroke:none"
         id="path186" /><path
         d="m 2225.31,4173.28 11.01,69.61 195.54,-87.78 v 42.65 l 86.39,-144.14 190.08,-540.44 c 6.18,-16.64 13.53,-72.13 2.45,-86.01 l -15.53,-19.49 -206,-26.64 -195.39,705.35 -68.55,86.89"
         style="fill:#dadbd8;fill-opacity:1;fill-rule:nonzero;stroke:none"
         id="path188" /><path
         d="m 2257.65,3121.25 v 0 l -0.44,32.79 c 0,0 -0.01,0 0,0 0.15,-10.78 0.3,-21.75 0.44,-32.79"
         style="fill:#a7a9a8;fill-opacity:1;fill-rule:nonzero;stroke:none"
         id="path190" /><path
         d="m 2494.6,3105.44 c -96.15,0 -236.88,15.8 -236.95,15.81 -0.14,11.04 -0.29,22.01 -0.44,32.79 65.82,-6.78 169.82,-16.07 245.1,-16.07 18.68,0 35.59,0.57 49.71,1.89 v -31.47 c -15.19,-2.1 -35.11,-2.95 -57.42,-2.95"
         style="fill:#0f191d;fill-opacity:1;fill-rule:nonzero;stroke:none"
         id="path192" /><path
         d="m 2552.02,3108.39 v 31.47 c 20.72,1.95 35.44,5.51 40.93,11.26 24.2,25.33 44.33,148.04 49.14,249.68 l 11.23,1.45 c -2.4,-58.05 -24.28,-213 -24.28,-213 0,0 -2.55,-54.7 -56.17,-76.04 -5.16,-2.05 -12.24,-3.63 -20.85,-4.82"
         style="fill:#0f191d;fill-opacity:1;fill-rule:nonzero;stroke:none"
         id="path194" /><path
         d="m 2642.09,3400.8 c 1.27,26.66 1.48,51.86 0.43,73.49 l 2.39,11.28 c 3.76,-21.64 7.55,-47.81 8.53,-69.62 0.16,-3.55 0.11,-8.19 -0.12,-13.7 l -11.23,-1.45"
         style="fill:#8f9192;fill-opacity:1;fill-rule:nonzero;stroke:none"
         id="path196" /><path
         d="m 2454.7,4092.6 c 0,0 89.41,-304.36 88.65,-306.63 -0.75,-2.27 99.16,-311.73 99.16,-311.73 l 19.65,93.04 -138.96,463.95 -55.9,68.48 -12.6,-7.11"
         style="fill:#f2575d;fill-opacity:1;fill-rule:nonzero;stroke:none"
         id="path198" /><path
         d="m 2167.21,4144.88 c -91.73,-55.86 -96.49,-142.63 -55.67,-241.97 6.76,-16.48 19.76,-44.85 28.8,-64.05 39.47,-83.88 121.37,-220.78 121.36,-252.81 -0.02,-75.33 -67.49,-425.06 -67.49,-425.06 0,0 365.74,-44.41 398.74,-9.87 32.99,34.54 58.41,250 47.8,346.42 -11.71,106.38 -66.52,286.32 -88.73,352.92 -13.34,40.07 -57.49,139.88 -110.12,205.29 -39.36,48.91 -86.23,91.27 -138.75,125.68 l -77.84,51.01 -16.06,-54.01 c 0,0 -21.42,-21 -42.04,-33.55"
         style="fill:#33535f;fill-opacity:1;fill-rule:nonzero;stroke:none"
         id="path200" /><path
         d="m 2523.2,4120.61 c 7.54,0.41 341.83,-109.25 322.52,-101.17 l 8.92,9.31 120.47,181.61 109.74,-65.07 c 0,0 -108.88,-208.05 -126.87,-240.64 -16.1,-29.2 -47.22,-52.61 -88.69,-52.54 -24.51,0.04 -233.88,35.04 -233.88,35.04 l -112.21,233.46"
         style="fill:#33535f;fill-opacity:1;fill-rule:nonzero;stroke:none"
         id="path202" /><path
         d="m 2657.68,4245.57 25.88,45.8 116.43,-66.23 -18.15,-50.43 -124.16,70.86"
         style="fill:#dadbd8;fill-opacity:1;fill-rule:nonzero;stroke:none"
         id="path204" /><path
         d="m 2592.95,3718.19 c 0,0 -0.25,0.07 -0.74,0.21 -2.18,7.79 -4.37,15.46 -6.53,22.96 l 7.27,-23.17"
         style="fill:#cc4341;fill-opacity:1;fill-rule:nonzero;stroke:none"
         id="path206" /><path
         d="m 2592.21,3718.4 c -8.2,2.33 -83.14,23.58 -150.43,39.15 -71.29,16.51 -296.25,141.82 -296.25,141.82 l 220.07,39.73 195.27,-118.73 24.81,-79.01 c 2.16,-7.5 4.35,-15.17 6.53,-22.96"
         style="fill:#20353d;fill-opacity:1;fill-rule:nonzero;stroke:none"
         id="path208" /><path
         d="m 2145.54,3899.37 c -2.78,2.11 337.16,-118.79 406.42,-96.99 69.24,21.79 91.74,90.48 116.51,132.72 45.32,77.34 125.64,231.05 125.64,231.05 l -144.19,82.3 -143.26,-239.68 c 0,0 -253.06,104.34 -276.38,111.15 -23.33,6.81 -95.39,16.15 -130.64,-68.08 -39.07,-93.33 45.9,-152.47 45.9,-152.47"
         style="fill:#33535f;fill-opacity:1;fill-rule:nonzero;stroke:none"
         id="path210" /><path
         d="m 2145.53,3899.37 c 0.14,-0.06 -0.98,0.45 -2.54,1.67 -1.63,1.18 -4.02,3.01 -6.99,5.62 -5.93,5.2 -14.5,13.34 -23.48,25.71 -8.85,12.31 -18.25,29.2 -22.35,50.99 -1.41,5.37 -1.34,11.15 -1.88,17.05 -0.34,5.92 0.53,12.03 0.8,18.34 1.38,6.15 2.15,12.68 4.18,19.05 2.4,6.23 3.87,13.06 7.21,19.3 5.47,13 13.7,25.67 24.22,37.17 10.62,11.42 24.59,20.89 40.77,26.28 16.12,5.52 34.26,6.75 52.31,4.04 9.05,-1.18 18.11,-4.23 26.69,-7.63 8.69,-3.33 17.51,-6.73 26.47,-10.18 71.39,-28.12 150.89,-60.6 236.65,-95.75 l -3.02,-1.01 c 44.29,74.21 92.68,155.27 143.11,239.76 l 1.31,2.19 2.21,-1.27 c 16.46,-9.39 34.09,-19.44 51.85,-29.57 31.63,-18.07 62.86,-35.9 92.34,-52.73 l 2.17,-1.24 -1.15,-2.21 c -28.33,-53.97 -56.23,-106.22 -83.65,-156.2 -13.74,-24.98 -27.35,-49.39 -41.15,-73.01 -13.62,-23.42 -24.41,-48.08 -38.88,-69.99 -14.06,-22.06 -32.16,-41.34 -53.87,-53.84 -11.03,-5.88 -22.02,-11.25 -34.37,-13.34 -12.15,-1.62 -23.99,-0.84 -35.5,0.21 -45.98,5.1 -87.43,15.91 -125.06,25.61 -75.14,20.16 -134.52,39.74 -175.4,53.25 -40.83,13.63 -63,21.73 -63,21.73 -0.03,0.2 1.47,-0.19 4.22,-1.01 2.96,-0.92 7.03,-2.18 12.26,-3.81 10.96,-3.52 26.78,-8.59 47.11,-15.1 41.04,-12.95 100.57,-32.01 175.69,-51.68 37.59,-9.47 79.1,-20.05 124.58,-24.89 11.33,-1 23.03,-1.68 34.48,-0.1 11.15,1.87 22.33,7.26 32.79,12.92 20.92,12.16 38.42,30.84 52.19,52.57 14.18,21.57 24.83,46.07 38.6,69.9 13.71,23.58 27.25,48 40.93,72.97 27.33,49.99 55.16,102.26 83.44,156.21 l 1.01,-3.44 c -29.5,16.82 -60.73,34.64 -92.37,52.69 -17.75,10.13 -35.38,20.2 -51.83,29.59 l 3.51,0.92 c -50.53,-84.42 -99,-165.43 -143.38,-239.59 l -1.08,-1.8 -1.94,0.8 c -85.67,35.32 -165.09,68.04 -236.31,96.43 -8.92,3.48 -17.71,6.9 -26.36,10.27 -8.68,3.46 -17.07,6.34 -25.89,7.55 -17.46,2.71 -35.03,1.61 -50.58,-3.64 -15.63,-5.11 -29.13,-14.13 -39.51,-25.14 -10.27,-11.09 -18.42,-23.39 -23.88,-36.13 -3.34,-6.11 -4.81,-12.77 -7.22,-18.87 -2.05,-6.22 -2.83,-12.58 -4.26,-18.6 -0.3,-6.15 -1.22,-12.13 -0.94,-17.91 0.48,-5.77 0.34,-11.43 1.67,-16.71 3.78,-21.38 12.81,-38.14 21.37,-50.47 8.67,-12.39 16.99,-20.66 22.72,-26.02 2.86,-2.71 5.15,-4.63 6.69,-5.92 1.05,-0.91 1.69,-1.47 2.29,-1.99"
         style="fill:#17282f;fill-opacity:1;fill-rule:nonzero;stroke:none"
         id="path212" /><path
         d="m 2309,3387.1 31.5,63.77 220.37,-3.87 -24.49,-65.96 -227.38,6.06"
         style="fill:#33535f;fill-opacity:1;fill-rule:nonzero;stroke:none"
         id="path214" /><path
         d="m 2309,3387.1 c 0.13,0.08 1.77,0.12 4.8,0.12 3.51,-0.02 7.83,-0.04 13.1,-0.08 11.91,-0.14 28.07,-0.34 47.99,-0.59 40.67,-0.54 96.98,-1.37 161.55,-2.98 l -2.44,-1.65 c 7.43,20.08 15.27,41.25 23.33,63.02 0.37,1.01 0.74,2 1.1,2.97 l 2.39,-3.51 c -88.71,1.57 -167.95,3.32 -220.35,4.79 l 1.54,0.94 c -9.94,-19.17 -17.96,-34.62 -23.82,-45.92 -2.69,-5.09 -4.88,-9.23 -6.64,-12.56 -1.55,-2.9 -2.42,-4.47 -2.55,-4.55 -0.14,-0.08 0.45,1.31 1.72,4.11 1.51,3.3 3.4,7.42 5.72,12.47 5.55,11.79 13.13,27.93 22.55,47.94 l 0.44,0.95 1.1,-0.01 c 52.42,-0.37 131.68,-1.4 220.38,-2.95 l 3.68,-0.07 -1.28,-3.45 c -0.36,-0.96 -0.73,-1.96 -1.1,-2.96 -8.11,-21.75 -15.99,-42.91 -23.46,-62.98 l -0.63,-1.7 -1.81,0.05 c -65.87,1.87 -123.25,4.08 -163.66,5.69 -19.59,0.81 -35.48,1.47 -47.19,1.95 -5,0.24 -9.1,0.44 -12.43,0.6 -2.78,0.17 -4.16,0.28 -4.03,0.36"
         style="fill:#17282f;fill-opacity:1;fill-rule:nonzero;stroke:none"
         id="path216" /><path
         d="m 2456.12,4036.89 c -0.72,-1.25 -56.57,29.42 -124.73,68.5 -68.18,39.1 -122.86,71.8 -122.14,73.04 0.71,1.25 56.55,-29.42 124.73,-68.51 68.16,-39.08 122.85,-71.78 122.14,-73.03"
         style="fill:#17282f;fill-opacity:1;fill-rule:nonzero;stroke:none"
         id="path218" /><path
         d="m 2532.32,3555.68 c -0.09,-1.43 -53.19,0.8 -118.57,4.98 -65.4,4.19 -118.34,8.75 -118.24,10.19 0.09,1.44 53.17,-0.8 118.58,-4.99 65.38,-4.18 118.33,-8.74 118.23,-10.18"
         style="fill:#17282f;fill-opacity:1;fill-rule:nonzero;stroke:none"
         id="path220" /><path
         d="m 2982,4205.51 22.13,37.38 88.05,-51.41 -17.13,-40.55 -93.05,54.58"
         style="fill:#dadbd8;fill-opacity:1;fill-rule:nonzero;stroke:none"
         id="path222" /><path
         d="m 2868.66,3942.56 c -0.9,-0.95 -14.09,12.77 -21.49,34.54 -7.58,21.71 -5.62,40.63 -4.33,40.44 1.58,0.03 2.01,-18.07 9.26,-38.75 7.01,-20.75 17.82,-35.28 16.56,-36.23"
         style="fill:#17282f;fill-opacity:1;fill-rule:nonzero;stroke:none"
         id="path224" /><path
         d="m 2653.35,3906.91 c 1.38,0.39 10.67,-27.57 20.73,-62.45 10.07,-34.89 17.1,-63.49 15.73,-63.89 -1.39,-0.39 -10.67,27.56 -20.73,62.45 -10.07,34.88 -17.11,63.48 -15.73,63.89"
         style="fill:#17282f;fill-opacity:1;fill-rule:nonzero;stroke:none"
         id="path226" /><path
         d="m 2518.38,3932.97 c -0.9,-0.96 -13.36,13.79 -17.07,36.56 -3.94,22.74 3.01,40.75 4.16,40.14 1.56,-0.34 -2.78,-17.91 0.98,-39.28 3.44,-21.41 13.29,-36.59 11.93,-37.42"
         style="fill:#17282f;fill-opacity:1;fill-rule:nonzero;stroke:none"
         id="path228" /><path
         d="m 2550.97,3360.98 -228.2,6.44 3.77,18.68 c 11.59,-0.48 27.12,-1.12 46.11,-1.91 40.41,-1.61 97.79,-3.82 163.66,-5.69 l 1.81,-0.05 0.63,1.7 c 6.68,17.93 13.68,36.74 20.88,56.06 l -8.66,-75.23"
         style="fill:#20353d;fill-opacity:1;fill-rule:nonzero;stroke:none"
         id="path230" /><path
         d="m 2538.12,3378.45 -1.81,0.05 c -65.87,1.87 -123.25,4.08 -163.66,5.69 -18.99,0.79 -34.52,1.43 -46.11,1.91 l 0.12,0.63 209.72,-5.69 24.49,65.96 -1.24,-10.79 c -7.2,-19.32 -14.2,-38.13 -20.88,-56.06 l -0.63,-1.7"
         style="fill:#0f191d;fill-opacity:1;fill-rule:nonzero;stroke:none"
         id="path232" /><path
         d="m 2427.03,4112.99 2.4,-2.59 25.27,-17.8 12.6,7.11 -8.23,27.9 -26.62,19.94 -5.42,-34.56"
         style="fill:#f2575d;fill-opacity:1;fill-rule:nonzero;stroke:none"
         id="path234" /><path
         d="m 2461.1,4147.55 c 0.67,0.12 2.75,-8.96 5.63,-24.09 l 0.81,-4.26 -3.64,2.56 c -8.82,6.19 -20.2,14.4 -32.94,23.79 l 3.97,1.62 c -1.21,-7.85 -2.48,-16.17 -3.79,-24.81 -0.82,-5.17 -1.63,-10.22 -2.41,-15.1 l -0.55,-3.44 -3.1,1.53 c -19.17,9.4 -35.94,17.88 -47.85,24.15 -11.89,6.27 -18.94,10.34 -18.66,10.91 0.28,0.59 7.84,-2.42 20.14,-7.87 12.3,-5.45 29.34,-13.36 48.6,-22.57 l -3.65,-1.91 c 0.75,4.87 1.53,9.94 2.33,15.1 1.39,8.63 2.73,16.95 3.99,24.79 l 0.67,4.12 3.3,-2.52 c 12.6,-9.6 23.67,-18.22 32.09,-24.94 l -2.82,-1.7 c -1.97,15.27 -2.81,24.54 -2.12,24.64"
         style="fill:#17282f;fill-opacity:1;fill-rule:nonzero;stroke:none"
         id="path236" /></g></g></svg>
