<svg xmlns="http://www.w3.org/2000/svg" width="32" height="32" viewBox="0 0 32 32"><g transform="translate(-3596.793 -1840.527)"><path fill="#ffcc71" d="m 3627.7793,836.16455 a 12.375,12.375 0 0 1 -12.375,12.375 12.375,12.375 0 0 1 -12.375,-12.375 12.375,12.375 0 0 1 12.375,-12.375 12.375,12.375 0 0 1 12.375,12.375 z" transform="translate(0 1020.362)"/><g fill="#3a3640" transform="translate(464.943 -384.72)"><path style="line-height:normal;text-indent:0;text-align:start;text-decoration-line:none;text-decoration-style:solid;text-decoration-color:#000;text-transform:none;white-space:normal;isolation:auto;mix-blend-mode:normal;solid-color:#000;solid-opacity:1" d="M3146.748 2229.8906c-7.729 0-13.8847 6.3436-13.8847 14.0645 0 .3904.1708.7554.4258 1.0429.255.2876.5924.5205.9941.7286.8034.416 1.8819.7343 3.1621.9922 2.5605.5156 5.9241.7675 9.293.7675 3.3689 0 6.7344-.2519 9.2949-.7675 1.2803-.2579 2.3568-.5762 3.1602-.9922.4017-.2081.7391-.441.9941-.7286.255-.2875.4258-.6525.4258-1.0429 0-7.72-6.1363-14.0645-13.8653-14.0645zm0 1c7.1827 0 12.8653 5.8729 12.8653 13.0645 0 .1146-.037.2246-.1738.3789-.1369.1543-.3754.3331-.7051.5039-.6595.3415-1.6709.6532-2.8985.9004-2.4551.4944-5.779.748-9.0976.748-3.3186 0-6.6406-.2536-9.0957-.748-1.2276-.2472-2.2409-.5589-2.9004-.9004-.3298-.1708-.5663-.3496-.7031-.5039-.1369-.1543-.1758-.2643-.1758-.3789 0-7.1907 5.702-13.0645 12.8847-13.0645zM3152.0547 2247.8594a.50005.50005 0 00-.4883.3379c-.7164 1.9812-2.5944 3.2979-4.7012 3.2988-2.1068.0008-3.9851-1.3143-4.7031-3.2949a.50005.50005 0 10-.9394.3398c.8603 2.3732 3.1182 3.9561 5.6425 3.9551 2.5244-.001 4.7822-1.5851 5.6407-3.959a.50005.50005 0 00-.4512-.6777z" color="#000" enable-background="accumulate" font-family="sans-serif" font-weight="400" overflow="visible"/><path style="line-height:normal;text-indent:0;text-align:start;text-decoration-line:none;text-decoration-style:solid;text-decoration-color:#000;text-transform:none;white-space:normal;isolation:auto;mix-blend-mode:normal;solid-color:#000;solid-opacity:1" fill-rule="evenodd" d="M3146.3633 2225.9961l0 4.5 1 0 0-4.5zM3146.8555 2253.9961a.50004997.50004997 0 00-.4922.5078l0 1.4844a.50004997.50004997 0 101 0l0-1.4844a.50004997.50004997 0 00-.5078-.5078zM3151.8867 2253.2461a.50004994.50004994 0 00-.4472.7637l.7421 1.2382a.50028732.50028732 0 10.8575-.5156l-.7422-1.2363a.50004994.50004994 0 00-.4102-.25zM3141.877 2253.2461a.50004994.50004994 0 00-.4454.25l-.7421 1.2363a.50024447.50024447 0 10.8574.5156l.7422-1.2382a.50004994.50004994 0 00-.4121-.7637zM3155.3418 2249.9961a.50004997.50004997 0 00-.2285.9316l1.2363.7442a.50024447.50024447 0 10.5156-.8574l-1.2382-.7442a.50004997.50004997 0 00-.2852-.074zM3138.3711 2249.9961a.50004997.50004997 0 00-.2715.074l-1.2363.7442a.50004997.50004997 0 10.5137.8574l1.2382-.7442a.50004997.50004997 0 00-.2441-.9316z" color="#000" enable-background="accumulate" font-family="sans-serif" font-weight="400" overflow="visible"/></g></g></svg>